<?xml version="1.0" encoding="UTF-8" standalone="no"?>
<!-- Created with Inkscape (http://www.inkscape.org/) -->

<svg
   xmlns:dc="http://purl.org/dc/elements/1.1/"
   xmlns:cc="http://creativecommons.org/ns#"
   xmlns:rdf="http://www.w3.org/1999/02/22-rdf-syntax-ns#"
   xmlns:svg="http://www.w3.org/2000/svg"
   xmlns="http://www.w3.org/2000/svg"
   version="1.0"
   width="518.7959"
   height="599.992"
   id="svg2">
  <defs
     id="defs4" />
  <metadata
     id="metadata7">
    <rdf:RDF>
      <cc:Work
         rdf:about="">
        <dc:format>image/svg+xml</dc:format>
        <dc:type
           rdf:resource="http://purl.org/dc/dcmitype/StillImage" />
        <dc:title></dc:title>
        <dc:creator>
          <cc:Agent>
            <dc:title>Tyler Tidman VA3DGN</dc:title>
          </cc:Agent>
        </dc:creator>
      </cc:Work>
    </rdf:RDF>
  </metadata>
  <g
     id="g3137">
    <g
       id="g3132">
      <path
         d="m 382.44331,242.09484 -28.27176,118.85116 -5.1854,0 0.21357,5.89268 21.86232,0.1928 -0.51441,-6.23719 -7.22236,-0.15165 5.8284,-31.52576 21.19865,-0.15164 7.07311,32.15047 -7.07311,0 0.32151,5.52988 50.99065,0 -0.1286,-5.65848 -7.58752,0 -27.3922,-118.69955 -24.11285,-0.1928 z m -3.25635,43.4402 9.42689,34.94266 -17.54712,0.17222 8.12023,-35.1149 z"
         id="path3406"
         style="fill:#000000;fill-opacity:1;fill-rule:evenodd;stroke:none" />
      <path
         d="m 317.69225,242.35205 c -26.89923,0.1072 -53.79845,0.21434 -80.69769,0.3215 8.38057,19.20454 16.76111,38.40911 25.14167,57.61365 -9.53798,22.07667 -19.07594,44.15331 -28.61392,66.22998 22.8054,0.0642 45.61081,0.1286 68.41621,0.1928 -0.49513,-1.68868 0.71879,-5.10622 -0.88433,-5.67408 -2.6202,-0.0591 -5.24039,-0.11811 -7.8606,-0.17737 0.0428,-19.63323 0.0858,-39.26644 0.1286,-58.89967 6.16267,1.64294 8.54061,7.63618 8.80185,13.69326 1.53332,12.66344 -0.59585,25.76339 2.89644,38.1525 2.92716,8.93234 10.59824,17.41716 20.63898,17.19582 7.4507,0.34141 15.16938,-2.62722 20.19661,-8.14858 2.24792,-2.40823 4.57773,-9.58928 2.10971,-10.37482 -2.69071,4.74531 -11.02777,5.82282 -9.06288,-1.42565 -0.30095,-9.71953 0.30017,-19.54016 -0.9691,-29.18969 -2.17913,-9.11394 -8.87604,-16.43456 -16.31919,-21.76757 7.04543,1.30374 12.10477,-5.07296 15.47852,-10.29901 4.49514,-8.97238 4.40864,-19.81231 1.90866,-29.34953 -2.75021,-9.63574 -11.36651,-16.89563 -21.30954,-18.09371 z m -24.49633,6.11326 c 3.88925,0.81356 7.12909,0.8542 8.86264,4.11281 2.08658,4.5345 0.86754,39.54488 -0.0916,40.60238 l -3.01698,3.32636 -5.42848,0.0535 c -0.57892,0.006 -0.3319,-33.21176 -0.3256,-48.09513 z"
         id="path3408"
         style="fill:#000000;fill-opacity:1;fill-rule:evenodd;stroke:none" />
      <path
         d="m 517.99378,325.66352 c -0.18684,4.65893 0.2786,9.39595 -1.16337,13.90467 -1.14495,4.85676 -1.77789,9.90259 -4.46121,14.23974 -3.54083,7.33953 -9.83989,13.43345 -17.24812,16.79226 -8.14783,2.295 -16.85794,-0.19547 -23.86475,-4.56781 -7.2994,-4.51759 -14.59156,-10.29396 -18.13003,-18.33767 -3.55001,-9.51863 -6.86699,-19.26976 -7.59072,-29.47403 -1.65363,-12.22084 -2.17839,-24.95872 1.58232,-36.8572 0.88509,-5.5907 3.40083,-10.56965 6.0991,-15.45809 3.49213,-6.42738 6.76782,-13.54906 13.26945,-17.49689 3.39168,-3.24748 7.76346,-4.91947 12.04041,-6.57724 5.13793,-1.58707 10.28507,-1.30369 15.50279,-0.28187 5.80183,-1.46082 9.19717,7.87934 14.20756,4.95146 2.24231,-2.50562 4.02028,-7.58056 8.04244,-6.70022 2.69714,-0.76011 2.2922,1.48945 2.22475,3.41157 0.0971,13.8325 0.19424,27.66498 0.29152,41.49746 -4.53798,0.58056 -5.77743,-0.88673 -5.45288,-5.20932 -0.64688,-5.16517 -2.92013,-10.0749 -5.30883,-14.68111 -1.8723,-5.3513 -5.96676,-9.20312 -10.23951,-12.62871 -3.86831,-3.36755 -9.75646,-0.0969 -12.35628,3.53921 -5.45774,6.41798 -6.05581,15.31856 -5.73737,23.38221 0.61472,16.52572 -0.49105,33.05363 -0.0862,49.58264 -0.0593,9.13147 0.0364,18.83219 5.24465,26.75234 1.64411,5.02646 7.42092,6.3697 11.98868,4.7837 4.56006,-2.32603 9.09051,-5.53969 11.05694,-10.46949 2.65883,-5.38113 3.9872,-11.39814 5.10694,-17.27755 0.86813,-3.44122 -0.79824,-8.19217 4.13559,-6.82006 0.28208,0 0.56414,0 0.8462,0 z"
         id="path3418"
         style="fill:#000000;fill-opacity:1;fill-rule:evenodd;stroke:none" />
    </g>
    <g
       id="g3127">
      <path
         d="M 131.30253,49.526821 239.39998,300.02068 129.73849,548.06525 22.441029,296.77151 131.30253,49.526821 z"
         id="path3576"
         style="fill:#e5001a;fill-opacity:1;fill-rule:evenodd;stroke:none" />
      <path
         d="m 98.918312,124.87251 c -0.181689,0.23202 -3.215295,7.33197 -3.34365,7.45891 0.641117,0.88427 31.118818,42.13488 32.086168,43.01733 -0.0858,33.80086 -0.42866,68.05185 -0.5144,101.8527 -18.30433,-5.63704 -36.608682,-11.2741 -54.913011,-16.91115 5.572742,12.51725 11.145504,25.03451 16.718246,37.55176 -19.611789,3.62229 -39.223578,7.24456 -58.835367,10.86686 17.361256,8.76637 34.722512,17.53271 52.083767,26.29908 -3.772315,10.54536 -7.544651,21.09071 -11.316966,31.63607 18.690135,0.1286 37.380291,0.2572 56.070421,0.38581 -0.0642,21.24075 -0.1286,63.63341 -0.1928,63.72223 -0.19012,-0.0214 -38.367475,0.38881 -38.773466,-0.0642 -0.07922,0.45763 4.315488,8.52887 4.436765,9.32363 0.613359,0.11029 76.683091,0.13087 77.225441,0.32151 0.0481,-0.16893 3.80001,-8.8203 4.11526,-9.32364 -1.22405,-0.28208 -39.79165,-0.38838 -39.80229,-0.1928 -0.15144,-0.54192 0.1286,-42.52437 0.1928,-63.78654 6.04429,0.0428 12.08858,0.0858 18.13287,0.1286 -5.55132,9.47368 -11.10263,18.94734 -16.65395,28.42102 20.40484,0.15 40.80966,0.30007 61.2145,0.45011 14.70348,-31.59321 40.45678,-95.51627 41.30459,-97.15886 -1.05701,-2.14938 -51.11802,-118.70543 -51.8613,-120.43172 -3.23649,17.3184 -6.33299,33.79703 -9.56948,51.11543 -13.86757,-5.44414 -27.73515,-10.8883 -41.60272,-16.33244 7.39461,24.43436 14.78922,48.86872 22.18383,73.30308 -7.65181,-2.3577 -15.30362,-4.71541 -22.95544,-7.07311 0.0858,-34.85111 0.1714,-69.70222 0.25721,-104.55334 10.40076,-13.70822 20.84949,-27.38008 31.25026,-41.0883 l 0.5144,-0.77161 c -1.16595,-2.57856 -2.37059,-5.13756 -3.53655,-7.71612 -21.21931,-0.15 -42.69583,-0.30006 -63.915138,-0.4501 z m 4.629668,7.20171 c 7.97332,0.0642 15.94663,0.1286 23.91995,0.1928 -0.0214,10.50249 -0.0428,21.00496 -0.0642,31.50746 -7.95187,-10.5668 -15.90377,-21.13357 -23.85565,-31.70037 z m 31.12166,0.2572 c 7.60895,0.0428 15.21788,0.0858 22.82683,0.1286 -7.63037,10.13811 -15.26076,21.11215 -22.89113,31.25026 0.0214,-10.18099 0.0428,-21.19787 0.0642,-31.37886 z M 96.539177,450.2353 c 1.167252,3.34381 3.394102,6.68312 4.822573,9.06643 0.72681,0.19239 39.96671,0.21231 59.92848,0.12861 1.58353,-3.81104 3.64699,-8.75788 3.47225,-8.93784 -21.16242,-0.12448 -46.23761,-0.21564 -68.223303,-0.2572 z m 33.436493,18.06857 c -12.6927,0.0185 -25.35945,0.11749 -25.65608,0.0642 0.40266,0.76051 3.75649,9.03679 4.43677,9.70945 0.86988,0.4492 42.9407,0.47305 43.91754,0.2572 -0.33706,-0.83801 4.09948,-8.7624 3.21505,-9.77374 -0.48755,-0.23583 -13.22058,-0.27511 -25.91328,-0.25721 z m 0.1286,18.51867 c -7.93622,0.0376 -15.81964,0.1179 -16.52534,0.1286 0.40163,0.77789 3.6477,8.84588 4.24386,9.58084 0.7125,0.38877 22.41241,-0.0228 24.56296,0.1928 0.96153,-1.85419 3.8197,-7.98385 4.56537,-9.83804 -0.92155,-0.0973 -8.91063,-0.10206 -16.84685,-0.0642 z m -0.51441,19.86899 c -3.36675,0.0261 -6.73413,0.0642 -7.39461,0.0642 0.46554,0.85398 6.56864,13.8552 7.84472,14.14621 0.82918,-0.19054 7.2478,-12.50928 7.0731,-14.01761 -0.77208,-0.19136 -4.15645,-0.21903 -7.52321,-0.1928 z"
         id="path4326"
         style="fill:#ffffff;fill-opacity:1;fill-rule:evenodd;stroke:none" />
      <path
         d="M 131.68834,8.9931179e-6 C 87.792231,99.987981 43.896125,198.37598 -1.6507021e-6,298.36395 43.896125,398.37331 87.792231,499.98265 131.68834,599.99202 175.60588,499.98265 219.52343,399.97328 263.44098,299.96393 219.52343,199.97595 175.60588,99.987981 131.68834,8.9931179e-6 z M 131.30253,52.726785 C 169.329,133.71211 200.70449,218.10382 237.00002,300.02068 203.84684,383.47536 167.4104,462.85617 130.53847,544.86529 93.930616,464.28929 59.953419,381.02361 24.041001,299.97148 57.687516,216.1749 94.666856,135.41132 131.30253,52.726785 z"
         id="path3416"
         style="fill:#000000;fill-opacity:1;fill-rule:evenodd;stroke:none" />
    </g>
  </g>
</svg>
