<?xml version="1.0" encoding="UTF-8" standalone="no"?>
<!-- Created with Inkscape (http://www.inkscape.org/) -->

<svg
   xmlns:dc="http://purl.org/dc/elements/1.1/"
   xmlns:cc="http://creativecommons.org/ns#"
   xmlns:rdf="http://www.w3.org/1999/02/22-rdf-syntax-ns#"
   xmlns:svg="http://www.w3.org/2000/svg"
   xmlns="http://www.w3.org/2000/svg"
   version="1.0"
   width="971.82629"
   height="599.992"
   id="svg2">
  <defs
     id="defs4" />
  <metadata
     id="metadata7">
    <rdf:RDF>
      <cc:Work
         rdf:about="">
        <dc:format>image/svg+xml</dc:format>
        <dc:type
           rdf:resource="http://purl.org/dc/dcmitype/StillImage" />
        <dc:title></dc:title>
        <dc:creator>
          <cc:Agent>
            <dc:title>Tyler Tidman VA3DGN</dc:title>
          </cc:Agent>
        </dc:creator>
      </cc:Work>
    </rdf:RDF>
  </metadata>
  <g
     transform="translate(-501.53165,-294.79273)"
     id="layer1">
    <g
       id="g3065">
      <path
         d=""
         id="path3018"
         style="fill:#ffffff;stroke:#db0029;stroke-width:5.05160046" />
      <path
         d=""
         id="path3030"
         style="fill:none;stroke:#ffffff;stroke-width:1.06799984;stroke-linecap:square" />
      <path
         d=""
         id="path3042"
         style="fill:none;stroke:#ffffff;stroke-width:1.06799984" />
      <path
         d=""
         id="path3044"
         style="fill:none;stroke:#ffffff;stroke-width:1.06799984" />
      <path
         d=""
         id="path3048"
         style="fill:none;stroke:#ffffff;stroke-width:1.06799984" />
      <path
         d=""
         id="path3052"
         style="fill:none;stroke:#ffffff;stroke-width:1.06799984" />
      <path
         d=""
         id="path3080"
         style="fill:none;stroke:#ffffff;stroke-width:1.06799984" />
      <path
         d=""
         id="path3082"
         style="fill:none;stroke:#ffffff;stroke-width:1.06799984" />
      <path
         d=""
         id="path3084"
         style="fill:none;stroke:#ffffff;stroke-width:1.06799984" />
      <path
         d=""
         id="path3088"
         style="fill:none;stroke:#ffffff;stroke-width:1.06799984;stroke-linejoin:round" />
      <path
         d=""
         id="path3090"
         style="fill:none;stroke:#ffffff;stroke-width:1.06799984;stroke-linejoin:round" />
      <g
         transform="matrix(2.0576303,0,0,2.0576303,-1014.5776,69.257555)"
         id="g3104">
        <path
           d=""
           id="path3106" />
      </g>
      <path
         d=""
         id="path3136"
         style="fill:#0c2e82;stroke:#000000;stroke-width:0.421" />
      <path
         d=""
         id="path3174"
         style="fill:#0c2e82;stroke:#000000;stroke-width:0.421" />
      <path
         d="M 632.83418,344.31955 740.93163,594.8134 631.27014,842.85798 523.97268,591.56424 632.83418,344.31955 z"
         id="path3576"
         style="fill:#e5001a;fill-opacity:1;fill-rule:evenodd;stroke:none" />
      <path
         d=""
         id="path2517"
         style="fill:#ffffff;stroke:#db0029;stroke-width:5.05160046" />
      <path
         d=""
         id="path2519"
         style="fill:none;stroke:#ffffff;stroke-width:1.06799984;stroke-linecap:square" />
      <path
         d=""
         id="path2521"
         style="fill:none;stroke:#ffffff;stroke-width:1.06799984" />
      <path
         d=""
         id="path2523"
         style="fill:none;stroke:#ffffff;stroke-width:1.06799984" />
      <path
         d=""
         id="path2525"
         style="fill:none;stroke:#ffffff;stroke-width:1.06799984" />
      <path
         d=""
         id="path2527"
         style="fill:none;stroke:#ffffff;stroke-width:1.06799984" />
      <path
         d=""
         id="path2529"
         style="fill:none;stroke:#ffffff;stroke-width:1.06799984" />
      <path
         d=""
         id="path2531"
         style="fill:none;stroke:#ffffff;stroke-width:1.06799984" />
      <path
         d=""
         id="path2533"
         style="fill:none;stroke:#ffffff;stroke-width:1.06799984" />
      <path
         d=""
         id="path2535"
         style="fill:none;stroke:#ffffff;stroke-width:1.06799984;stroke-linejoin:round" />
      <path
         d=""
         id="path2537"
         style="fill:none;stroke:#ffffff;stroke-width:1.06799984;stroke-linejoin:round" />
      <path
         d=""
         id="path2539"
         style="fill:#0c2e82;stroke:#000000;stroke-width:0.421" />
      <path
         d=""
         id="path2541"
         style="fill:#0c2e82;stroke:#000000;stroke-width:0.421" />
      <path
         d=""
         id="path2569"
         style="fill:#ffffff;stroke:#db0029;stroke-width:5.05160046" />
      <path
         d=""
         id="path2571"
         style="fill:none;stroke:#ffffff;stroke-width:1.06799984;stroke-linecap:square" />
      <path
         d=""
         id="path2573"
         style="fill:none;stroke:#ffffff;stroke-width:1.06799984" />
      <path
         d=""
         id="path2575"
         style="fill:none;stroke:#ffffff;stroke-width:1.06799984" />
      <path
         d=""
         id="path2577"
         style="fill:none;stroke:#ffffff;stroke-width:1.06799984" />
      <path
         d=""
         id="path2579"
         style="fill:none;stroke:#ffffff;stroke-width:1.06799984" />
      <path
         d=""
         id="path2581"
         style="fill:none;stroke:#ffffff;stroke-width:1.06799984" />
      <path
         d=""
         id="path2583"
         style="fill:none;stroke:#ffffff;stroke-width:1.06799984" />
      <path
         d=""
         id="path2585"
         style="fill:none;stroke:#ffffff;stroke-width:1.06799984" />
      <path
         d=""
         id="path2587"
         style="fill:none;stroke:#ffffff;stroke-width:1.06799984;stroke-linejoin:round" />
      <path
         d=""
         id="path2589"
         style="fill:none;stroke:#ffffff;stroke-width:1.06799984;stroke-linejoin:round" />
      <path
         d=""
         id="path2591"
         style="fill:#0c2e82;stroke:#000000;stroke-width:0.421" />
      <path
         d=""
         id="path2593"
         style="fill:#0c2e82;stroke:#000000;stroke-width:0.421" />
      <path
         d="m 600.44996,419.66524 c -0.18169,0.23201 -3.21529,7.33197 -3.34365,7.45891 0.64112,0.88426 31.11882,42.13487 32.08617,43.01733 -0.0858,33.80086 -0.42866,68.05184 -0.5144,101.8527 -18.30433,-5.63704 -36.60868,-11.27411 -54.91301,-16.91115 5.57274,12.51724 11.1455,25.03451 16.71824,37.55175 -19.61178,3.6223 -39.22357,7.24457 -58.83536,10.86686 17.36125,8.76637 34.72251,17.53272 52.08377,26.29909 -3.77232,10.54536 -7.54466,21.09071 -11.31697,31.63607 18.69013,0.1286 37.38029,0.2572 56.07042,0.3858 -0.0642,21.24075 -0.1286,63.63341 -0.1928,63.72224 -0.19012,-0.0214 -38.36748,0.38881 -38.77347,-0.0642 -0.0792,0.45764 4.31549,8.52888 4.43677,9.32364 0.61336,0.11029 76.68309,0.13086 77.22544,0.3215 0.0481,-0.16893 3.80001,-8.8203 4.11526,-9.32363 -1.22405,-0.28208 -39.79165,-0.38838 -39.80229,-0.1928 -0.15144,-0.54192 0.1286,-42.52437 0.1928,-63.78654 6.04429,0.0428 12.08858,0.0858 18.13287,0.1286 -5.55132,9.47368 -11.10263,18.94734 -16.65395,28.42102 20.40484,0.15 40.80966,0.30006 61.2145,0.4501 14.70348,-31.5932 40.45678,-95.51626 41.30459,-97.15885 -1.05701,-2.14938 -51.11802,-118.70543 -51.8613,-120.43172 -3.23649,17.31839 -6.33299,33.79703 -9.56948,51.11542 -13.86757,-5.44414 -27.73515,-10.8883 -41.60272,-16.33244 7.39461,24.43436 14.78922,48.86872 22.18383,73.30308 -7.65181,-2.35769 -15.30362,-4.71541 -22.95544,-7.0731 0.0858,-34.85112 0.1714,-69.70223 0.25721,-104.55334 10.40076,-13.70822 20.84949,-27.38009 31.25026,-41.08831 l 0.5144,-0.77161 c -1.16595,-2.57856 -2.37059,-5.13755 -3.53655,-7.71611 -21.21931,-0.15 -42.69583,-0.30007 -63.91514,-0.45011 z m 4.62967,7.2017 c 7.97332,0.0642 15.94663,0.1286 23.91995,0.1928 -0.0214,10.5025 -0.0428,21.00497 -0.0642,31.50747 -7.95187,-10.5668 -15.90377,-21.13358 -23.85565,-31.70037 z m 31.12166,0.25721 c 7.60895,0.0428 15.21788,0.0858 22.82683,0.1286 -7.63037,10.13811 -15.26076,21.11215 -22.89113,31.25026 0.0214,-10.18099 0.0428,-21.19787 0.0642,-31.37886 z m -38.13046,317.90388 c 1.16725,3.34381 3.3941,6.68312 4.82257,9.06643 0.72681,0.19239 39.96671,0.21231 59.92848,0.1286 1.58353,-3.81104 3.64699,-8.75787 3.47225,-8.93783 -21.16242,-0.12449 -46.23761,-0.21564 -68.2233,-0.2572 z m 33.43649,18.06856 c -12.6927,0.0185 -25.35945,0.11749 -25.65608,0.0642 0.40266,0.7605 3.75649,9.03678 4.43677,9.70944 0.86988,0.44921 42.9407,0.47305 43.91754,0.25721 -0.33706,-0.83801 4.09948,-8.7624 3.21505,-9.77375 -0.48755,-0.23582 -13.22058,-0.2751 -25.91328,-0.2572 z m 0.1286,18.51868 c -7.93622,0.0376 -15.81964,0.1179 -16.52534,0.1286 0.40163,0.77788 3.6477,8.84587 4.24386,9.58084 0.7125,0.38877 22.41241,-0.0228 24.56296,0.1928 0.96153,-1.85419 3.8197,-7.98385 4.56537,-9.83805 -0.92155,-0.0973 -8.91063,-0.10205 -16.84685,-0.0642 z m -0.51441,19.86899 c -3.36675,0.0261 -6.73413,0.0642 -7.39461,0.0642 0.46554,0.85397 6.56864,13.85519 7.84472,14.1462 0.82918,-0.19053 7.2478,-12.50928 7.0731,-14.0176 -0.77208,-0.19136 -4.15645,-0.21904 -7.52321,-0.1928 z"
         id="path4326"
         style="fill:#ffffff;fill-opacity:1;fill-rule:evenodd;stroke:none" />
      <path
         d="m 633.21999,294.79273 c -43.89611,99.98798 -87.79221,198.37598 -131.68834,298.36395 43.89613,100.00935 87.79223,201.6187 131.68834,301.62807 C 677.13753,794.77538 721.05508,694.766 764.97263,594.75665 721.05508,494.76868 677.13753,394.78071 633.21999,294.79273 z m -0.38581,52.72678 c 38.02647,80.98533 69.40196,165.37704 105.69749,247.29389 -33.15318,83.45469 -69.58962,162.83549 -106.46155,244.84461 -36.60785,-80.576 -70.58505,-163.84167 -106.49747,-244.89381 33.64652,-83.79658 70.62586,-164.56015 107.26153,-247.24469 z"
         id="path3416"
         style="fill:#000000;fill-opacity:1;fill-rule:evenodd;stroke:none" />
      <text
         x="749.22711"
         y="563.40839"
         id="text2937"
         xml:space="preserve"
         style="font-size:90px;font-style:normal;font-variant:normal;font-weight:bold;font-stretch:semi-condensed;text-align:start;line-height:100%;writing-mode:lr-tb;text-anchor:start;fill:#000000;fill-opacity:1;stroke:none;font-family:DejaVu Sans;-inkscape-font-specification:DejaVu Sans Bold Semi-Condensed"><tspan
           x="749.22711"
           y="563.40839"
           id="tspan2939">Radio Amateurs</tspan></text>
      <text
         x="971.8183"
         y="642.90527"
         id="text2941"
         xml:space="preserve"
         style="font-size:90px;font-style:normal;font-variant:normal;font-weight:bold;font-stretch:semi-condensed;text-align:start;line-height:100%;writing-mode:lr-tb;text-anchor:start;fill:#000000;fill-opacity:1;stroke:none;font-family:DejaVu Sans;-inkscape-font-specification:DejaVu Sans Bold Semi-Condensed"><tspan
           x="971.8183"
           y="642.90527"
           id="tspan2945">Canada</tspan></text>
      <text
         x="919.93616"
         y="606.08563"
         id="text2947"
         xml:space="preserve"
         style="font-size:45px;font-style:normal;font-variant:normal;font-weight:bold;font-stretch:semi-condensed;text-align:start;line-height:100%;writing-mode:lr-tb;text-anchor:start;fill:#000000;fill-opacity:1;stroke:none;font-family:DejaVu Sans;-inkscape-font-specification:DejaVu Sans Bold Semi-Condensed"><tspan
           x="919.93616"
           y="606.08563"
           id="tspan2951">of</tspan></text>
      <text
         x="913.24164"
         y="645.41565"
         id="text2953"
         xml:space="preserve"
         style="font-size:45px;font-style:normal;font-variant:normal;font-weight:bold;font-stretch:semi-condensed;text-align:start;line-height:100%;writing-mode:lr-tb;text-anchor:start;fill:#000000;fill-opacity:1;stroke:none;font-family:DejaVu Sans;-inkscape-font-specification:DejaVu Sans Bold Semi-Condensed"><tspan
           x="913.24164"
           y="645.41565"
           id="tspan2957">du</tspan></text>
    </g>
  </g>
</svg>
