<?xml version="1.0" encoding="UTF-8" standalone="no"?>
<!-- Created with Inkscape (http://www.inkscape.org/) -->

<svg
   xmlns:dc="http://purl.org/dc/elements/1.1/"
   xmlns:cc="http://creativecommons.org/ns#"
   xmlns:rdf="http://www.w3.org/1999/02/22-rdf-syntax-ns#"
   xmlns:svg="http://www.w3.org/2000/svg"
   xmlns="http://www.w3.org/2000/svg"
   version="1.0"
   width="516.98682"
   height="606"
   id="svg2">
  <defs
     id="defs4" />
  <metadata
     id="metadata7">
    <rdf:RDF>
      <cc:Work
         rdf:about="">
        <dc:format>image/svg+xml</dc:format>
        <dc:type
           rdf:resource="http://purl.org/dc/dcmitype/StillImage" />
        <dc:title></dc:title>
        <dc:creator>
          <cc:Agent>
            <dc:title>Tyler Tidman VA3DGN</dc:title>
          </cc:Agent>
        </dc:creator>
      </cc:Work>
    </rdf:RDF>
  </metadata>
  <g
     transform="translate(-502.26504,-339.57141)"
     id="layer1">
    <g
       transform="matrix(0.99598026,0,0,0.99598026,6.2559107,1.5479265)"
       id="g3699">
      <path
         d=""
         id="path3018"
         style="fill:#ffffff;stroke:#db0029;stroke-width:5.05159903" />
      <path
         d=""
         id="path3030"
         style="fill:none;stroke:#ffffff;stroke-width:1.06799984;stroke-linecap:square" />
      <path
         d=""
         id="path3042"
         style="fill:none;stroke:#ffffff;stroke-width:1.06799984" />
      <path
         d=""
         id="path3044"
         style="fill:none;stroke:#ffffff;stroke-width:1.06799984" />
      <path
         d=""
         id="path3048"
         style="fill:none;stroke:#ffffff;stroke-width:1.06799984" />
      <path
         d=""
         id="path3052"
         style="fill:none;stroke:#ffffff;stroke-width:1.06799984" />
      <path
         d=""
         id="path3080"
         style="fill:none;stroke:#ffffff;stroke-width:1.06799984" />
      <path
         d=""
         id="path3082"
         style="fill:none;stroke:#ffffff;stroke-width:1.06799984" />
      <path
         d=""
         id="path3084"
         style="fill:none;stroke:#ffffff;stroke-width:1.06799984" />
      <path
         d=""
         id="path3088"
         style="fill:none;stroke:#ffffff;stroke-width:1.06799984;stroke-linejoin:round" />
      <path
         d=""
         id="path3090"
         style="fill:none;stroke:#ffffff;stroke-width:1.06799984;stroke-linejoin:round" />
      <g
         transform="matrix(2.0488152,0,0,2.0488152,-1008.0991,120.33088)"
         id="g3104">
        <path
           d=""
           id="path3106" />
      </g>
      <path
         d=""
         id="path3136"
         style="fill:#0c2e82;stroke:#000000;stroke-width:0.42100003" />
      <path
         d=""
         id="path3174"
         style="fill:#0c2e82;stroke:#000000;stroke-width:0.42100003" />
      <path
         d="M 632.25506,394.21447 739.8894,643.63519 630.69771,890.61711 523.85993,640.39994 632.25506,394.21447 z"
         id="path3576"
         style="fill:#000000;fill-opacity:1;fill-rule:evenodd;stroke:none" />
      <path
         d="m 882.31992,585.95752 -28.15064,118.34198 -5.16318,0 0.21265,5.86744 21.76866,0.19197 -0.5122,-6.21047 -7.19143,-0.151 5.80343,-31.39069 21.10784,-0.151 7.0428,32.01274 -7.0428,0 0.32013,5.50619 50.7722,0 -0.12805,-5.63425 -7.55501,0 -27.27485,-118.19102 -24.00955,-0.19198 z m -3.2424,43.25409 9.38651,34.79296 -17.47195,0.17149 8.08544,-34.96447 z"
         id="path3406"
         style="fill:#000000;fill-opacity:1;fill-rule:evenodd;stroke:none" />
      <path
         d="m 817.84626,586.21362 c -26.78399,0.10674 -53.56797,0.21342 -80.35197,0.32012 8.34466,19.12227 16.6893,38.24456 25.03396,57.36683 -9.49711,21.98209 -18.99421,43.96415 -28.49133,65.94624 22.70769,0.0639 45.41541,0.12805 68.1231,0.19197 -0.493,-1.68144 0.71572,-5.08434 -0.88054,-5.64977 -2.60898,-0.0588 -5.21794,-0.1176 -7.82692,-0.17661 0.0426,-19.54911 0.0854,-39.09821 0.12805,-58.64733 6.13626,1.6359 8.50402,7.60346 8.76413,13.6346 1.52676,12.60919 -0.59329,25.65301 2.88404,37.98905 2.91462,8.89407 10.55283,17.34254 20.55056,17.12215 7.41878,0.33994 15.1044,-2.61597 20.11008,-8.11368 2.23829,-2.39791 4.55813,-9.54819 2.10067,-10.33037 -2.67917,4.72498 -10.98052,5.79788 -9.02404,-1.41954 -0.29966,-9.67789 0.29888,-19.45645 -0.96495,-29.06464 -2.1698,-9.0749 -8.83802,-16.36415 -16.24928,-21.67431 7.01524,1.29815 12.05291,-5.05123 15.41221,-10.25489 4.47588,-8.93394 4.38975,-19.72743 1.90048,-29.22379 -2.73842,-9.59446 -11.31782,-16.82325 -21.21825,-18.0162 z m -24.39139,6.08707 c 3.87259,0.81008 7.09855,0.85054 8.82468,4.09519 2.07764,4.51508 0.86382,39.37546 -0.0912,40.42843 l -3.00406,3.31212 -5.40522,0.0533 c -0.57644,0.006 -0.33047,-33.06947 -0.32421,-47.88908 z"
         id="path3408"
         style="fill:#000000;fill-opacity:1;fill-rule:evenodd;stroke:none" />
      <path
         d="m 1017.2897,669.16818 c -0.1861,4.63897 0.2774,9.35569 -1.1584,13.84509 -1.14,4.83596 -1.7703,9.86017 -4.4421,14.17875 -3.5257,7.30808 -9.7977,13.37589 -17.17424,16.72032 -8.11291,2.28516 -16.78571,-0.19464 -23.7625,-4.54825 -7.26813,-4.49824 -14.52905,-10.24986 -18.05236,-18.2591 -3.5348,-9.47786 -6.83757,-19.18722 -7.5582,-29.34777 -1.64655,-12.16848 -2.16906,-24.8518 1.57554,-36.6993 0.8813,-5.56675 3.38626,-10.52437 6.07297,-15.39186 3.47717,-6.39985 6.73882,-13.49102 13.21261,-17.42194 3.37714,-3.23356 7.7302,-4.89839 11.98882,-6.54906 5.11592,-1.58027 10.24101,-1.29811 15.43637,-0.28066 5.77698,-1.45456 9.15779,7.84558 14.14669,4.93024 2.2327,-2.49488 4.0031,-7.54808 8.008,-6.67151 2.6856,-0.75686 2.2824,1.48307 2.2152,3.39695 0.097,13.77325 0.1934,27.54647 0.2903,41.31969 -4.5186,0.57807 -5.7527,-0.88294 -5.4295,-5.18701 -0.6441,-5.14304 -2.9077,-10.03173 -5.2861,-14.61821 -1.8643,-5.32838 -5.9412,-9.1637 -10.19567,-12.5746 -3.85173,-3.35314 -9.71466,-0.0965 -12.30334,3.52404 -5.43436,6.39048 -6.02986,15.25294 -5.71279,23.28204 0.61208,16.45491 -0.48895,32.91202 -0.0858,49.37022 -0.059,9.09235 0.0363,18.75151 5.22219,26.63773 1.63706,5.00493 7.38913,6.34241 11.93732,4.76321 4.54059,-2.31607 9.05159,-5.51597 11.00959,-10.42464 2.6475,-5.35808 3.9701,-11.34931 5.0851,-17.20353 0.8644,-3.42648 -0.7948,-8.15707 4.1179,-6.79084 0.2808,0 0.5617,0 0.8425,0 z"
         id="path3418"
         style="fill:#000000;fill-opacity:1;fill-rule:evenodd;stroke:none" />
      <path
         d=""
         id="path2517"
         style="fill:#ffffff;stroke:#db0029;stroke-width:5.05159903" />
      <path
         d=""
         id="path2519"
         style="fill:none;stroke:#ffffff;stroke-width:1.06799984;stroke-linecap:square" />
      <path
         d=""
         id="path2521"
         style="fill:none;stroke:#ffffff;stroke-width:1.06799984" />
      <path
         d=""
         id="path2523"
         style="fill:none;stroke:#ffffff;stroke-width:1.06799984" />
      <path
         d=""
         id="path2525"
         style="fill:none;stroke:#ffffff;stroke-width:1.06799984" />
      <path
         d=""
         id="path2527"
         style="fill:none;stroke:#ffffff;stroke-width:1.06799984" />
      <path
         d=""
         id="path2529"
         style="fill:none;stroke:#ffffff;stroke-width:1.06799984" />
      <path
         d=""
         id="path2531"
         style="fill:none;stroke:#ffffff;stroke-width:1.06799984" />
      <path
         d=""
         id="path2533"
         style="fill:none;stroke:#ffffff;stroke-width:1.06799984" />
      <path
         d=""
         id="path2535"
         style="fill:none;stroke:#ffffff;stroke-width:1.06799984;stroke-linejoin:round" />
      <path
         d=""
         id="path2537"
         style="fill:none;stroke:#ffffff;stroke-width:1.06799984;stroke-linejoin:round" />
      <path
         d=""
         id="path2539"
         style="fill:#0c2e82;stroke:#000000;stroke-width:0.42100003" />
      <path
         d=""
         id="path2541"
         style="fill:#0c2e82;stroke:#000000;stroke-width:0.42100003" />
      <path
         d=""
         id="path2569"
         style="fill:#ffffff;stroke:#db0029;stroke-width:5.05159903" />
      <path
         d=""
         id="path2571"
         style="fill:none;stroke:#ffffff;stroke-width:1.06799984;stroke-linecap:square" />
      <path
         d=""
         id="path2573"
         style="fill:none;stroke:#ffffff;stroke-width:1.06799984" />
      <path
         d=""
         id="path2575"
         style="fill:none;stroke:#ffffff;stroke-width:1.06799984" />
      <path
         d=""
         id="path2577"
         style="fill:none;stroke:#ffffff;stroke-width:1.06799984" />
      <path
         d=""
         id="path2579"
         style="fill:none;stroke:#ffffff;stroke-width:1.06799984" />
      <path
         d=""
         id="path2581"
         style="fill:none;stroke:#ffffff;stroke-width:1.06799984" />
      <path
         d=""
         id="path2583"
         style="fill:none;stroke:#ffffff;stroke-width:1.06799984" />
      <path
         d=""
         id="path2585"
         style="fill:none;stroke:#ffffff;stroke-width:1.06799984" />
      <path
         d=""
         id="path2587"
         style="fill:none;stroke:#ffffff;stroke-width:1.06799984;stroke-linejoin:round" />
      <path
         d=""
         id="path2589"
         style="fill:none;stroke:#ffffff;stroke-width:1.06799984;stroke-linejoin:round" />
      <path
         d=""
         id="path2591"
         style="fill:#0c2e82;stroke:#000000;stroke-width:0.42100003" />
      <path
         d=""
         id="path2593"
         style="fill:#0c2e82;stroke:#000000;stroke-width:0.42100003" />
      <path
         d="m 600.00957,469.23737 c -0.18091,0.23103 -3.20152,7.30057 -3.32932,7.42696 0.63837,0.88048 30.9855,41.95437 31.94871,42.83304 -0.0854,33.65605 -0.42683,67.7603 -0.5122,101.41635 -18.22591,-5.61289 -36.45185,-11.2258 -54.67776,-16.8387 5.54887,12.46362 11.09776,24.92726 16.64663,37.39088 -19.52777,3.60678 -39.05554,7.21353 -58.58331,10.82031 17.28687,8.72881 34.57375,17.4576 51.86063,26.18642 -3.75615,10.50017 -7.51233,21.00035 -11.26848,31.50053 18.61006,0.12805 37.22015,0.2561 55.83021,0.38415 -0.0639,21.14976 -0.12805,63.3608 -0.19197,63.44925 -0.18931,-0.0213 -38.20311,0.38714 -38.60736,-0.0639 -0.0789,0.45567 4.297,8.49233 4.41775,9.28369 0.61073,0.10982 76.35457,0.1303 76.8946,0.32013 0.0479,-0.16821 3.78373,-8.78252 4.09763,-9.2837 -1.2188,-0.28087 -39.62118,-0.38671 -39.63177,-0.19197 -0.15079,-0.5396 0.12805,-42.34219 0.19197,-63.51327 6.0184,0.0426 12.03679,0.0854 18.05519,0.12805 -5.52754,9.43309 -11.05506,18.86617 -16.5826,28.29926 20.31742,0.14936 40.63483,0.29878 60.95225,0.44818 14.64049,-31.45786 40.28346,-95.10707 41.12763,-96.74262 -1.05247,-2.14017 -50.89902,-118.19688 -51.63911,-119.91578 -3.22263,17.2442 -6.30587,33.65224 -9.52849,50.89644 -13.80816,-5.42081 -27.61633,-10.84165 -41.42448,-16.26247 7.36293,24.32968 14.72586,48.65936 22.08879,72.98904 -7.61904,-2.34759 -15.23807,-4.69521 -22.8571,-7.0428 0.0854,-34.70181 0.17067,-69.40361 0.2561,-104.10542 10.35621,-13.6495 20.76018,-27.26279 31.11638,-40.91228 l 0.51221,-0.76831 c -1.16096,-2.56751 -2.36044,-5.11554 -3.5214,-7.68305 -21.12841,-0.14936 -42.51292,-0.29878 -63.64133,-0.44818 z m 4.60984,7.17086 c 7.93916,0.0639 15.87832,0.12805 23.81748,0.19197 -0.0213,10.4575 -0.0426,20.91498 -0.0639,31.37248 -7.91781,-10.52152 -15.83564,-21.04303 -23.75345,-31.56456 z m 30.98833,0.2561 c 7.57635,0.0426 15.15269,0.0854 22.72904,0.12805 -7.59768,10.09468 -15.19538,21.0217 -22.79307,31.11638 0.0213,-10.13737 0.0426,-21.10706 0.0639,-31.24443 z m -37.96711,316.54195 c 1.16225,3.32949 3.37956,6.65449 4.80191,9.02759 0.72371,0.19156 39.79549,0.2114 59.67174,0.12805 1.57675,-3.79471 3.63137,-8.72035 3.45738,-8.89954 -21.07176,-0.12395 -46.03952,-0.21472 -67.93103,-0.2561 z m 33.29325,17.99116 c -12.63832,0.0184 -25.25081,0.11698 -25.54617,0.0639 0.40094,0.75724 3.7404,8.99807 4.41776,9.66785 0.86616,0.44727 42.75675,0.47102 43.7294,0.2561 -0.33562,-0.83442 4.08192,-8.72486 3.20127,-9.73187 -0.48546,-0.23482 -13.16394,-0.27393 -25.80226,-0.25611 z m 0.12805,18.43933 c -7.90222,0.0375 -15.75187,0.1174 -16.45455,0.12805 0.39991,0.77456 3.63208,8.80798 4.22568,9.5398 0.70945,0.3871 22.3164,-0.0227 24.45774,0.19197 0.95741,-1.84625 3.80333,-7.94965 4.5458,-9.79589 -0.9176,-0.0969 -8.87245,-0.10163 -16.77467,-0.0639 z m -0.5122,19.78387 c -3.35234,0.026 -6.70528,0.0639 -7.36293,0.0639 0.46354,0.85032 6.54049,13.79584 7.8111,14.0856 0.82564,-0.18972 7.21675,-12.45569 7.04281,-13.95755 -0.76878,-0.19054 -4.13865,-0.2181 -7.49098,-0.19198 z"
         id="path4326"
         style="fill:#ffffff;fill-opacity:1;fill-rule:evenodd;stroke:none" />
      <path
         d="m 632.63921,344.89984 c -43.70805,99.55961 -87.4161,197.52611 -131.12417,297.08572 43.70807,99.5809 87.41612,200.75494 131.12417,300.33586 43.7294,-99.58092 87.4588,-199.16184 131.1882,-298.74274 -43.7294,-99.55961 -87.4588,-199.11923 -131.1882,-298.67884 z m -0.38415,52.50089 C 670.11862,478.0391 701.35969,562.06927 737.49972,643.63519 704.48858,726.73235 668.20824,805.77307 631.49427,887.43086 595.04325,807.20005 561.21161,724.2911 525.45305,643.5862 558.95542,560.14861 595.77633,479.73104 632.25506,397.40073 z"
         id="path3416"
         style="fill:#ffffff;fill-opacity:1;fill-rule:evenodd;stroke:#000000;stroke-width:5;stroke-linecap:butt;stroke-linejoin:miter;stroke-miterlimit:4;stroke-opacity:1;stroke-dasharray:none" />
    </g>
  </g>
</svg>
