<?xml version="1.0" encoding="UTF-8" standalone="no"?>
<!-- Created with Inkscape (http://www.inkscape.org/) -->

<svg
   xmlns:dc="http://purl.org/dc/elements/1.1/"
   xmlns:cc="http://creativecommons.org/ns#"
   xmlns:rdf="http://www.w3.org/1999/02/22-rdf-syntax-ns#"
   xmlns:svg="http://www.w3.org/2000/svg"
   xmlns="http://www.w3.org/2000/svg"
   version="1.0"
   width="767.95807"
   height="768.87872"
   id="svg2">
  <defs
     id="defs4" />
  <metadata
     id="metadata7">
    <rdf:RDF>
      <cc:Work
         rdf:about="">
        <dc:format>image/svg+xml</dc:format>
        <dc:type
           rdf:resource="http://purl.org/dc/dcmitype/StillImage" />
        <dc:title></dc:title>
        <dc:creator>
          <cc:Agent>
            <dc:title>Tyler Tidman VA3DGN</dc:title>
          </cc:Agent>
        </dc:creator>
      </cc:Work>
    </rdf:RDF>
  </metadata>
  <g
     transform="translate(0,-8)"
     id="g3096">
    <path
       d="M 379.50266,136.76502 487.60011,387.25887 377.93862,635.30345 270.64116,384.00971 379.50266,136.76502 z"
       id="path3576"
       style="fill:#e5001a;fill-opacity:1;fill-rule:evenodd;stroke:none" />
    <path
       d="m 347.11844,212.11071 c -0.18169,0.23201 -3.21529,7.33197 -3.34365,7.45891 0.64112,0.88426 31.11882,42.13487 32.08617,43.01733 -0.0858,33.80086 -0.42866,68.05184 -0.5144,101.8527 -18.30433,-5.63704 -36.60868,-11.27411 -54.91301,-16.91115 5.57274,12.51724 11.1455,25.03451 16.71824,37.55175 -19.61178,3.6223 -39.22357,7.24457 -58.83536,10.86686 17.36125,8.76637 34.72251,17.53272 52.08377,26.29909 -3.77232,10.54536 -7.54466,21.09071 -11.31697,31.63607 18.69013,0.1286 37.38029,0.2572 56.07042,0.3858 -0.0642,21.24075 -0.1286,63.63341 -0.1928,63.72224 -0.19012,-0.0214 -38.36748,0.38881 -38.77347,-0.0642 -0.0792,0.45764 4.31549,8.52888 4.43677,9.32364 0.61336,0.11029 76.68309,0.13086 77.22544,0.3215 0.0481,-0.16893 3.80001,-8.8203 4.11526,-9.32363 -1.22405,-0.28208 -39.79165,-0.38838 -39.80229,-0.1928 -0.15144,-0.54192 0.1286,-42.52437 0.1928,-63.78654 6.04429,0.0428 12.08858,0.0858 18.13287,0.1286 -5.55132,9.47368 -11.10263,18.94734 -16.65395,28.42102 20.40484,0.15 40.80966,0.30006 61.2145,0.4501 14.70348,-31.5932 40.45678,-95.51626 41.30459,-97.15885 -1.05701,-2.14938 -51.11802,-118.70543 -51.8613,-120.43172 -3.23649,17.31839 -6.33299,33.79703 -9.56948,51.11542 -13.86757,-5.44414 -27.73515,-10.8883 -41.60272,-16.33244 7.39461,24.43436 14.78922,48.86872 22.18383,73.30308 -7.65181,-2.35769 -15.30362,-4.71541 -22.95544,-7.0731 0.0858,-34.85112 0.1714,-69.70223 0.25721,-104.55334 10.40076,-13.70822 20.84949,-27.38009 31.25026,-41.08831 l 0.5144,-0.77161 c -1.16595,-2.57856 -2.37059,-5.13755 -3.53655,-7.71611 -21.21931,-0.15 -42.69583,-0.30007 -63.91514,-0.45011 z m 4.62967,7.2017 c 7.97332,0.0642 15.94663,0.1286 23.91995,0.1928 -0.0214,10.5025 -0.0428,21.00497 -0.0642,31.50747 -7.95187,-10.5668 -15.90377,-21.13358 -23.85565,-31.70037 z m 31.12166,0.25721 c 7.60895,0.0428 15.21788,0.0858 22.82683,0.1286 -7.63037,10.13811 -15.26076,21.11215 -22.89113,31.25026 0.0214,-10.18099 0.0428,-21.19787 0.0642,-31.37886 z M 344.73931,537.4735 c 1.16725,3.34381 3.3941,6.68312 4.82257,9.06643 0.72681,0.19239 39.96671,0.21231 59.92848,0.1286 1.58353,-3.81104 3.64699,-8.75787 3.47225,-8.93783 -21.16242,-0.12449 -46.23761,-0.21564 -68.2233,-0.2572 z m 33.43649,18.06856 c -12.6927,0.0185 -25.35945,0.11749 -25.65608,0.0642 0.40266,0.7605 3.75649,9.03678 4.43677,9.70944 0.86988,0.44921 42.9407,0.47305 43.91754,0.25721 -0.33706,-0.83801 4.09948,-8.7624 3.21505,-9.77375 -0.48755,-0.23582 -13.22058,-0.2751 -25.91328,-0.2572 z m 0.1286,18.51868 c -7.93622,0.0376 -15.81964,0.1179 -16.52534,0.1286 0.40163,0.77788 3.6477,8.84587 4.24386,9.58084 0.7125,0.38877 22.41241,-0.0228 24.56296,0.1928 0.96153,-1.85419 3.8197,-7.98385 4.56537,-9.83805 -0.92155,-0.0973 -8.91063,-0.10205 -16.84685,-0.0642 z m -0.51441,19.86899 c -3.36675,0.0261 -6.73413,0.0642 -7.39461,0.0642 0.46554,0.85397 6.56864,13.85519 7.84472,14.1462 0.82918,-0.19053 7.2478,-12.50928 7.0731,-14.0176 -0.77208,-0.19136 -4.15645,-0.21904 -7.52321,-0.1928 z"
       id="path4326"
       style="fill:#ffffff;fill-opacity:1;fill-rule:evenodd;stroke:none" />
    <path
       d="M 379.88847,87.2382 C 335.99236,187.22618 292.09626,285.61418 248.20013,385.60215 292.09626,485.6115 335.99236,587.22085 379.88847,687.23022 423.80601,587.22085 467.72356,487.21147 511.64111,387.20212 467.72356,287.21415 423.80601,187.22618 379.88847,87.2382 z m -0.38581,52.72678 c 38.02647,80.98533 69.40196,165.37704 105.69749,247.29389 -33.15318,83.45469 -69.58962,162.83549 -106.46155,244.84461 -36.60785,-80.576 -70.58505,-163.84167 -106.49747,-244.89381 33.64652,-83.79658 70.62586,-164.56015 107.26153,-247.24469 z"
       id="path3416"
       style="fill:#000000;fill-opacity:1;fill-rule:evenodd;stroke:none" />
  </g>
  <path
     d="m 24.022339,372.04179 c 0.05873,-2.83531 -0.426542,-4.87313 -1.455807,-6.11348 -1.028719,-1.26372 -2.749866,-1.92057 -5.163444,-1.97057 -2.390075,-0.0495 -4.1135,0.5361 -5.170279,1.75664 -1.056213,1.19717 -1.613689,3.21341 -1.672429,6.04871 l -0.117882,5.69409 13.461959,0.2787 0.117882,-5.69409 m 9.231678,5.88765 19.859026,0.41113 -0.280151,13.53225 -52.4770367,-1.0864 0.427866,-20.66745 c 0.1431589,-6.91254 1.4078489,-11.94994 3.7940737,-15.1122 2.3868062,-3.18561 6.087458,-4.72653 11.101966,-4.62277 3.468041,0.0719 6.29762,0.97436 8.488747,2.70753 2.191669,1.70984 3.779792,4.26278 4.764373,7.65885 0.460132,-1.84239 1.455063,-3.47449 2.984796,-4.8963 1.506827,-1.44564 3.787147,-2.88703 6.840967,-4.32418 l 15.055138,-7.03755 -0.298342,14.41097 -13.172609,6.12711 c -2.651104,1.23448 -4.470853,2.50959 -5.459252,3.82532 -0.987879,1.29236 -1.504628,3.03985 -1.550247,5.24248 l -0.07932,3.83121"
     id="path4119"
     style="font-size:72px;font-style:normal;font-variant:normal;font-weight:bold;font-stretch:normal;text-align:start;line-height:125%;writing-mode:lr-tb;text-anchor:start;fill:#000000;fill-opacity:1;stroke:none;font-family:DejaVu Sans;-inkscape-font-specification:DejaVu Sans Bold" />
  <path
     d="m 40.869687,316.5534 c -0.463822,2.58372 -0.375464,4.61171 0.265075,6.08398 0.644705,1.44924 1.820593,2.32708 3.527666,2.63352 1.56868,0.28163 2.896036,-0.0159 3.982072,-0.89244 1.067119,-0.90377 1.768402,-2.28995 2.10385,-4.15853 0.418283,-2.32992 -0.06017,-4.43985 -1.435367,-6.3298 -1.398254,-1.89403 -3.354627,-3.06676 -5.869124,-3.51821 l -1.418726,-0.25469 -1.155446,6.43617 m -1.273406,-19.76651 22.111357,3.96952 -2.242561,12.49171 -5.744108,-1.03121 c 2.054827,2.0834 3.437992,4.2605 4.149499,6.5313 0.688432,2.26671 0.76553,4.88798 0.231296,7.86382 -0.720605,4.01397 -2.471579,7.06905 -5.252928,9.16525 -2.800274,2.06901 -6.068975,2.76805 -9.806113,2.09714 -4.54452,-0.81584 -7.598402,-2.97141 -9.161655,-6.4667 -1.559071,-3.51834 -1.738116,-8.62247 -0.537136,-15.31242 l 1.310749,-7.30124 -0.968886,-0.17394 c -1.960818,-0.35198 -3.529812,0.16405 -4.706989,1.54811 -1.200195,1.37998 -2.094343,3.70783 -2.682447,6.98355 -0.476231,2.65293 -0.654069,5.1689 -0.533515,7.54794 0.120612,2.37907 0.535474,4.64426 1.244589,6.79559 l -9.446636,-1.69589 c -0.169628,-2.76885 -0.175741,-5.52025 -0.01834,-8.25422 0.134406,-2.73807 0.441791,-5.44509 0.922156,-8.12109 1.254874,-6.98978 3.543888,-11.78181 6.867046,-14.37609 3.304289,-2.6214 8.059158,-3.37511 14.26462,-2.26113"
     id="path4121"
     style="font-size:72px;font-style:normal;font-variant:normal;font-weight:bold;font-stretch:normal;text-align:start;line-height:125%;writing-mode:lr-tb;text-anchor:start;fill:#000000;fill-opacity:1;stroke:none;font-family:DejaVu Sans;-inkscape-font-specification:DejaVu Sans Bold" />
  <path
     d="m 41.452975,253.04402 -19.958062,-6.82804 4.096821,-11.97483 51.757907,17.70736 -4.09682,11.97484 -5.388677,-1.84357 c 1.633964,2.39211 2.62338,4.74946 2.96825,7.07205 0.344853,2.32264 0.07346,4.78122 -0.814174,7.37575 -1.570453,4.59037 -4.678591,7.73811 -9.324423,9.44324 -4.668003,1.69756 -9.873746,1.56386 -15.617244,-0.40111 -5.743464,-1.96494 -9.929088,-5.0442 -12.556887,-9.2378 -2.649913,-4.20114 -3.189662,-8.59689 -1.619248,-13.18727 0.880089,-2.57234 2.178852,-4.66705 3.896293,-6.28415 1.702909,-1.64677 3.921661,-2.91893 6.656264,-3.81647 m 21.430299,16.10071 c 0.87247,-2.55017 0.60493,-4.80918 -0.802619,-6.77703 -1.399961,-1.98996 -3.873991,-3.59189 -7.422095,-4.8058 -3.548089,-1.21383 -6.484906,-1.46306 -8.810462,-0.74766 -2.317936,0.69329 -3.913147,2.31501 -4.785639,4.86517 -0.864861,2.52805 -0.597322,4.78706 0.802619,6.77703 1.40757,1.96784 3.885392,3.55869 7.433475,4.77254 3.54811,1.21389 6.481135,1.4742 8.799082,0.78093 2.325544,-0.71541 3.920755,-2.33714 4.785639,-4.86518"
     id="path4123"
     style="font-size:72px;font-style:normal;font-variant:normal;font-weight:bold;font-stretch:normal;text-align:start;line-height:125%;writing-mode:lr-tb;text-anchor:start;fill:#000000;fill-opacity:1;stroke:none;font-family:DejaVu Sans;-inkscape-font-specification:DejaVu Sans Bold" />
  <path
     d="m 47.14902,223.98972 5.424823,-11.3568 35.529684,16.97151 -5.424822,11.35681 -35.529685,-16.97152 m -13.831198,-6.60676 5.424822,-11.35681 9.263096,4.42471 -5.424822,11.35681 -9.263096,-4.42471"
     id="path4125"
     style="font-size:72px;font-style:normal;font-variant:normal;font-weight:bold;font-stretch:normal;text-align:start;line-height:125%;writing-mode:lr-tb;text-anchor:start;fill:#000000;fill-opacity:1;stroke:none;font-family:DejaVu Sans;-inkscape-font-specification:DejaVu Sans Bold" />
  <path
     d="m 76.682622,186.11464 c -1.475434,2.36687 -1.748474,4.70995 -0.819122,7.02924 0.921891,2.28706 2.983923,4.42868 6.186104,6.42485 3.202197,1.99621 6.042895,2.91088 8.522102,2.74401 2.471715,-0.19912 4.445297,-1.4821 5.92075,-3.84897 1.450644,-2.32703 1.715031,-4.63407 0.793162,-6.92113 -0.941773,-2.2994 -3.01375,-4.44722 -6.215938,-6.44345 -3.20219,-1.99615 -6.032943,-2.90462 -8.492268,-2.72542 -2.479199,0.1669 -4.444127,1.41385 -5.89479,3.74087 m -7.637527,-4.76111 c 3.58325,-5.74799 7.930532,-9.26594 13.041858,-10.55387 5.123741,-1.30772 10.430341,-0.25058 15.919816,3.17142 5.489451,3.42209 8.775061,7.7212 9.856831,12.89733 1.09413,5.15632 -0.15041,10.60847 -3.73362,16.35648 -3.59564,5.76794 -7.961519,9.31572 -13.09765,10.64337 -5.123733,1.30778 -10.430333,0.25064 -15.919815,-3.17142 -5.489452,-3.42203 -8.775061,-7.72114 -9.856837,-12.89733 -1.069327,-5.19603 0.19381,-10.67802 3.789417,-16.44598"
     id="path4127"
     style="font-size:72px;font-style:normal;font-variant:normal;font-weight:bold;font-stretch:normal;text-align:start;line-height:125%;writing-mode:lr-tb;text-anchor:start;fill:#000000;fill-opacity:1;stroke:none;font-family:DejaVu Sans;-inkscape-font-specification:DejaVu Sans Bold" />
  <path
     d="m 152.49163,127.98771 -15.07757,14.85209 4.33123,9.15622 -9.69272,9.54777 -22.98385,-51.03656 11.49602,-11.324101 50.68449,23.750161 -9.69272,9.54777 -9.06488,-4.49335 m -19.50711,5.54596 10.24373,-10.09054 -19.76406,-9.84426 9.52033,19.9348"
     id="path4129"
     style="font-size:72px;font-style:normal;font-variant:normal;font-weight:bold;font-stretch:normal;text-align:start;line-height:125%;writing-mode:lr-tb;text-anchor:start;fill:#000000;fill-opacity:1;stroke:none;font-family:DejaVu Sans;-inkscape-font-specification:DejaVu Sans Bold" />
  <path
     d="m 188.60619,71.051063 c -0.004,-2.912235 0.55814,-5.495231 1.68672,-7.748994 1.13528,-2.286098 2.80045,-4.14898 4.9955,-5.588652 3.78247,-2.480688 7.42824,-3.204065 10.9373,-2.170132 3.50899,1.034064 6.72239,3.775488 9.64021,8.224278 l 13.14929,20.049236 -10.58318,6.940971 -11.2598,-17.16826 c -0.14753,-0.267586 -0.31126,-0.538592 -0.49117,-0.813019 -0.16039,-0.287183 -0.40766,-0.685579 -0.74182,-1.195189 -1.52962,-2.332165 -2.97801,-3.792693 -4.34516,-4.381589 -1.38008,-0.608384 -2.83444,-0.411312 -4.36309,0.591218 -1.99907,1.311125 -3.00749,3.149697 -3.02528,5.515722 0.002,2.353269 1.00493,5.10081 3.00949,8.24263 l 10.60426,16.168736 -10.58317,6.940971 -11.2598,-17.168257 c -2.39079,-3.645278 -4.24038,-5.781635 -5.54876,-6.409077 -1.32126,-0.646959 -2.78542,-0.44346 -4.39249,0.610498 -2.01864,1.323965 -3.03044,3.178763 -3.03539,5.564401 -0.0178,2.366108 0.98229,5.087623 3.00032,8.164554 l 10.62354,16.198141 -10.58317,6.94097 -21.59413,-32.925435 10.58317,-6.940972 3.162,4.821224 c 0.0724,-2.710154 0.63305,-5.081893 1.68194,-7.115224 1.0685,-2.046093 2.61206,-3.731124 4.63071,-5.0551 2.27341,-1.490971 4.64216,-2.259712 7.10623,-2.306225 2.46406,-0.04641 4.79597,0.62445 6.99573,2.012575"
     id="path4131"
     style="font-size:72px;font-style:normal;font-variant:normal;font-weight:bold;font-stretch:normal;text-align:start;line-height:125%;writing-mode:lr-tb;text-anchor:start;fill:#000000;fill-opacity:1;stroke:none;font-family:DejaVu Sans;-inkscape-font-specification:DejaVu Sans Bold" />
  <path
     d="m 249.68512,56.219491 c -2.42533,1.004266 -4.08477,2.173366 -4.97834,3.507303 -0.87194,1.325014 -0.97615,2.788727 -0.31262,4.391145 0.60971,1.472525 1.57664,2.429297 2.90079,2.870319 1.33682,0.41043 2.88225,0.252497 4.63628,-0.473799 2.18709,-0.905595 3.70493,-2.447305 4.55353,-4.625134 0.83959,-2.199445 0.77073,-4.479348 -0.20659,-6.839718 l -0.55144,-1.331754 -6.04161,2.501638 m 15.95184,-11.742013 8.59434,20.75588 -11.72593,4.85533 -2.23265,-5.391981 c -0.64457,2.854361 -1.73059,5.193904 -3.25805,7.018636 -1.53648,1.803097 -3.70142,3.282976 -6.49484,4.439641 -3.7679,1.560165 -7.28482,1.735363 -10.55077,0.525592 -3.25327,-1.240381 -5.60618,-3.61459 -7.05874,-7.122635 -1.76639,-4.265929 -1.60036,-8.000241 0.49809,-11.20295 2.1201,-3.211628 6.32006,-6.117587 12.59988,-8.717885 l 6.85366,-2.83788 -0.37659,-0.909491 c -0.76216,-1.840598 -2.04351,-2.882803 -3.84404,-3.126617 -1.80952,-0.265391 -4.25175,0.238511 -7.32668,1.511708 -2.49028,1.031177 -4.7042,2.239613 -6.64177,3.62531 -1.93757,1.385765 -3.62044,2.957758 -5.04863,4.715984 l -3.67176,-8.867535 c 2.23922,-1.637429 4.55203,-3.127798 6.93842,-4.47111 2.37743,-1.364882 4.8221,-2.567397 7.33403,-3.60755 6.56132,-2.716784 11.83082,-3.376679 15.80852,-1.979687 3.99034,1.366468 7.19151,4.96221 9.60351,10.78724"
     id="path4133"
     style="font-size:72px;font-style:normal;font-variant:normal;font-weight:bold;font-stretch:normal;text-align:start;line-height:125%;writing-mode:lr-tb;text-anchor:start;fill:#000000;fill-opacity:1;stroke:none;font-family:DejaVu Sans;-inkscape-font-specification:DejaVu Sans Bold" />
  <path
     d="m 285.47324,9.464775 2.95043,10.783339 12.51274,-3.423604 2.37518,8.680927 -12.51274,3.423605 4.40708,16.10719 c 0.48244,1.76333 1.16067,2.865604 2.03468,3.306826 0.86779,0.418646 2.3416,0.343435 4.42142,-0.225635 l 6.23942,-1.707163 2.37518,8.680928 -10.41033,2.848364 c -4.79261,1.311304 -8.46705,1.247513 -11.02334,-0.191372 -2.53988,-1.467666 -4.46547,-4.597797 -5.77677,-9.390403 l -4.40707,-16.107189 -6.03596,1.651495 -2.37519,-8.680928 6.03596,-1.651495 -2.95042,-10.783339 12.13973,-3.321546"
     id="path4135"
     style="font-size:72px;font-style:normal;font-variant:normal;font-weight:bold;font-stretch:normal;text-align:start;line-height:125%;writing-mode:lr-tb;text-anchor:start;fill:#000000;fill-opacity:1;stroke:none;font-family:DejaVu Sans;-inkscape-font-specification:DejaVu Sans Bold" />
  <path
     d="m 355.02441,27.911264 0.50563,3.55011 -29.13179,4.149137 c 0.71803,2.880674 2.08608,4.923021 4.10416,6.127046 2.01804,1.204049 4.6513,1.574734 7.89979,1.112056 2.62195,-0.373428 5.2474,-1.137983 7.87637,-2.293668 2.6488,-1.182166 5.31106,-2.768716 7.98679,-4.759656 l 1.36818,9.606183 c -2.78824,1.533472 -5.61609,2.788497 -8.48356,3.765077 -2.86424,0.999793 -5.76975,1.709539 -8.71654,2.129242 -7.05384,1.004651 -12.79589,-4.27e-4 -17.22617,-3.015238 -4.41041,-3.041308 -7.07662,-7.798827 -7.99865,-14.272572 -0.9055,-6.357688 0.29659,-11.630646 3.6063,-15.818888 3.33289,-4.191476 8.36383,-6.766423 15.09281,-7.724848 6.12565,-0.872415 11.28428,0.274943 15.4759,3.442078 4.21475,3.163909 6.76167,7.831885 7.64078,14.003941 M 341.62627,25.5937 c -0.33712,-2.36671 -1.30421,-4.170239 -2.90127,-5.410592 -1.57723,-1.266794 -3.47958,-1.741579 -5.70708,-1.424357 -2.41317,0.343731 -4.27636,1.307481 -5.58958,2.891254 -1.31655,1.560634 -1.97868,3.643556 -1.9864,6.248771 L 341.62627,25.5937"
     id="path4137"
     style="font-size:72px;font-style:normal;font-variant:normal;font-weight:bold;font-stretch:normal;text-align:start;line-height:125%;writing-mode:lr-tb;text-anchor:start;fill:#000000;fill-opacity:1;stroke:none;font-family:DejaVu Sans;-inkscape-font-specification:DejaVu Sans Bold" />
  <path
     d="m 367.10651,31.651816 0.25993,-24.04547 12.65552,0.136806 -0.0426,3.93727 c -0.0231,2.132721 -0.0638,4.816029 -0.12218,8.049931 -0.0582,3.210521 -0.0931,5.354798 -0.10469,6.432838 -0.0342,3.163895 0.0231,5.449803 0.17197,6.857728 0.14909,1.384518 0.41943,2.395311 0.81102,3.032382 0.50671,0.825848 1.1678,1.465843 1.98327,1.919987 0.83886,0.454416 1.79734,0.687446 2.87542,0.699092 2.62482,0.02838 4.69809,-0.957076 6.21982,-2.956378 1.52167,-1.99928 2.3019,-4.791788 2.3407,-8.377532 l 0.21015,-19.44027 12.5852,0.136047 -0.42562,39.372699 -12.5852,-0.136046 0.0616,-5.69498 c -1.92319,2.276223 -3.95706,3.953553 -6.10163,5.031995 -2.12093,1.05526 -4.45864,1.569083 -7.01316,1.541469 -4.54663,-0.04915 -8.0001,-1.481093 -10.36042,-4.295834 -2.33691,-2.814482 -3.4766,-6.881723 -3.41909,-12.201734"
     id="path4139"
     style="font-size:72px;font-style:normal;font-variant:normal;font-weight:bold;font-stretch:normal;text-align:start;line-height:125%;writing-mode:lr-tb;text-anchor:start;fill:#000000;fill-opacity:1;stroke:none;font-family:DejaVu Sans;-inkscape-font-specification:DejaVu Sans Bold" />
  <path
     d="m 451.65896,24.627633 c -1.01757,-0.666252 -2.055,-1.193318 -3.11229,-1.581197 -1.03085,-0.407716 -2.09149,-0.689505 -3.18194,-0.845368 -3.20188,-0.457539 -5.82041,0.221819 -7.85562,2.038076 -2.00873,1.796418 -3.28663,4.60876 -3.8337,8.437034 l -2.56634,17.958178 -12.45935,-1.780523 5.57035,-38.978992 12.45936,1.780524 -0.91513,6.403691 c 1.96562,-2.323381 4.06381,-3.917582 6.29458,-4.782609 2.25723,-0.884844 4.83597,-1.120052 7.73623,-0.705627 0.41759,0.05972 0.86671,0.147575 1.34735,0.263573 0.48389,0.09287 1.18159,0.2636 2.09313,0.512201 l -1.57663,11.281039"
     id="path4141"
     style="font-size:72px;font-style:normal;font-variant:normal;font-weight:bold;font-stretch:normal;text-align:start;line-height:125%;writing-mode:lr-tb;text-anchor:start;fill:#000000;fill-opacity:1;stroke:none;font-family:DejaVu Sans;-inkscape-font-specification:DejaVu Sans Bold" />
  <path
     d="m 493.36182,25.442117 -2.46201,9.240126 c -2.31484,-1.781001 -4.61146,-3.266115 -6.88987,-4.455346 -2.27847,-1.189187 -4.49344,-2.070421 -6.64491,-2.643707 -2.31006,-0.615475 -4.10971,-0.779668 -5.39894,-0.492579 -1.2606,0.270527 -2.0508,1.005933 -2.3706,2.206219 -0.2595,0.973859 -0.0396,1.832857 0.65953,2.576995 0.72179,0.750214 2.1479,1.542535 4.27834,2.376967 l 2.05872,0.875983 c 6.01679,2.452113 9.85957,4.870685 11.52836,7.255723 1.66872,2.385058 1.98716,5.513931 0.95533,9.386626 -1.08018,4.053876 -3.38653,6.701678 -6.91903,7.943416 -3.53257,1.241724 -8.26564,1.072093 -14.19923,-0.508893 -2.51387,-0.669816 -5.06401,-1.567589 -7.65041,-2.693322 -2.56982,-1.097058 -5.16458,-2.419059 -7.78429,-3.966007 l 2.462,-9.240126 c 2.10948,1.823344 4.35402,3.367349 6.73365,4.632019 2.40224,1.270714 4.91692,2.256059 7.54403,2.956038 2.37795,0.633606 4.25459,0.781931 5.62992,0.444976 1.37528,-0.336953 2.23491,-1.150879 2.57889,-2.441782 0.28962,-1.087069 0.0849,-2.002684 -0.61427,-2.74685 -0.67051,-0.760765 -2.20081,-1.617229 -4.5909,-2.569395 l -2.06776,-0.842012 c -5.23171,-2.121614 -8.69024,-4.38929 -10.37559,-6.803037 -1.68538,-2.413713 -2.03023,-5.488984 -1.03455,-9.225822 1.0741,-4.031201 3.25211,-6.652557 6.53406,-7.864076 3.28191,-1.21145 7.77644,-1.056868 13.4836,0.463747 2.24206,0.597432 4.55212,1.394856 6.93021,2.392276 2.37801,0.997483 4.91991,2.244762 7.62572,3.741843"
     id="path4143"
     style="font-size:72px;font-style:normal;font-variant:normal;font-weight:bold;font-stretch:normal;text-align:start;line-height:125%;writing-mode:lr-tb;text-anchor:start;fill:#000000;fill-opacity:1;stroke:none;font-family:DejaVu Sans;-inkscape-font-specification:DejaVu Sans Bold" />
  <path
     d="m 549.4075,56.151978 c -2.47821,-1.279623 -4.83568,-1.362694 -7.07241,-0.249213 -2.20521,1.103443 -4.17344,3.331572 -5.9047,6.684394 -1.7313,3.352842 -2.41375,6.258087 -2.04736,8.715742 0.39793,2.447586 1.836,4.311198 4.3142,5.590842 2.43651,1.258128 4.75736,1.335482 6.96258,0.23206 2.2159,-1.124255 4.1895,-3.362797 5.92082,-6.715631 1.73124,-3.35283 2.40831,-6.247662 2.03123,-8.684505 -0.36641,-2.457645 -1.76786,-4.31554 -4.20436,-5.573689 m 4.12926,-7.996825 c 6.0184,3.10772 9.87569,7.156936 11.57189,12.14766 1.71692,5.001503 1.09146,10.376104 -1.8764,16.12382 -2.96795,5.747708 -6.9879,9.369526 -12.05985,10.865465 -5.05121,1.506662 -10.58601,0.706153 -16.60443,-2.40153 -6.03928,-3.118461 -9.92781,-7.183807 -11.6656,-12.19605 -1.71698,-5.001491 -1.09151,-10.376092 1.8764,-16.12382 2.96789,-5.747696 6.98784,-9.369514 12.05986,-10.865465 5.09279,-1.485143 10.65883,-0.668504 16.69813,2.44992"
     id="path4145"
     style="font-size:72px;font-style:normal;font-variant:normal;font-weight:bold;font-stretch:normal;text-align:start;line-height:125%;writing-mode:lr-tb;text-anchor:start;fill:#000000;fill-opacity:1;stroke:none;font-family:DejaVu Sans;-inkscape-font-specification:DejaVu Sans Bold" />
  <path
     d="m 613.97647,68.628993 -4.65415,6.826046 -5.75131,-3.921368 c -1.47176,-1.003422 -2.68293,-1.432089 -3.63352,-1.286002 -0.93747,0.126774 -1.85509,0.848546 -2.75287,2.165319 l -1.54478,2.265666 8.88838,6.060295 -5.07005,7.436033 -8.88838,-6.060296 -17.11143,25.096614 -10.39882,-7.09015 17.11142,-25.096614 -5.17037,-3.52527 5.07006,-7.436032 5.17036,3.52527 1.54478,-2.265666 c 2.41617,-3.543701 5.1862,-5.484563 8.31012,-5.822592 3.13704,-0.357322 6.7776,0.876746 10.92168,3.702208 l 7.95888,5.426539"
     id="path4147"
     style="font-size:72px;font-style:normal;font-variant:normal;font-weight:bold;font-stretch:normal;text-align:start;line-height:125%;writing-mode:lr-tb;text-anchor:start;fill:#000000;fill-opacity:1;stroke:none;font-family:DejaVu Sans;-inkscape-font-specification:DejaVu Sans Bold" />
  <path
     d="m 638.18576,161.52676 c -2.65347,-0.89059 -5.15268,-2.07688 -7.49765,-3.55886 -2.34503,-1.48203 -4.53552,-3.27634 -6.5715,-5.38291 -6.07544,-6.28612 -9.13585,-12.96008 -9.18123,-20.02188 -0.0286,-7.07811 2.96539,-13.52456 8.98186,-19.33939 6.03328,-5.83108 12.57801,-8.60362 19.63422,-8.31764 7.07297,0.26975 13.64719,3.54765 19.72267,9.83373 2.03594,2.10662 3.75455,4.35699 5.15586,6.75111 1.40117,2.39415 2.50161,4.93233 3.3013,7.61457 l -7.81128,7.54949 c -0.51262,-2.99228 -1.32938,-5.64166 -2.45028,-7.94814 -1.12101,-2.30649 -2.61805,-4.42876 -4.49111,-6.36684 -3.35538,-3.47167 -7.10632,-5.12682 -11.25283,-4.96545 -4.14659,0.1614 -8.1748,2.1315 -12.08461,5.9103 -3.89303,3.76253 -5.99082,7.71312 -6.29339,11.85177 -0.30261,4.13864 1.22376,7.9438 4.57912,11.41549 1.87308,1.93806 3.94312,3.50654 6.2101,4.70546 2.26691,1.19888 4.88691,2.10545 7.86003,2.7197 l -7.81128,7.54949"
     id="path4149"
     style="font-size:72px;font-style:normal;font-variant:normal;font-weight:bold;font-stretch:normal;text-align:start;line-height:125%;writing-mode:lr-tb;text-anchor:start;fill:#000000;fill-opacity:1;stroke:none;font-family:DejaVu Sans;-inkscape-font-specification:DejaVu Sans Bold" />
  <path
     d="m 667.41779,176.17464 c -1.51504,-2.14369 -3.02172,-3.50401 -4.52005,-4.08096 -1.48484,-0.55782 -2.93544,-0.33624 -4.35178,0.66475 -1.30153,0.91983 -2.02117,2.07416 -2.1589,3.46302 -0.1051,1.39445 0.39019,2.86685 1.48589,4.4172 1.36619,1.93313 3.20501,3.07306 5.51647,3.4198 2.33055,0.33318 4.53897,-0.23743 6.62526,-1.71184 l 1.17711,-0.83191 -3.774,-5.34006 m 14.97465,12.96519 -18.3457,12.96551 -7.3248,-10.36432 4.76586,-3.36819 c -2.92624,0.002 -5.44784,-0.54095 -7.56482,-1.62777 -2.09787,-1.10038 -4.01929,-2.88509 -5.76424,-5.35414 -2.35369,-3.33037 -3.30117,-6.72178 -2.84245,-10.17425 0.49137,-3.44687 2.2874,-6.26597 5.38809,-8.45733 3.77057,-2.66478 7.44936,-3.32747 11.03639,-1.98804 3.60051,1.35857 7.36217,4.81315 11.28499,10.36375 l 4.28126,6.05782 0.80388,-0.56813 c 1.62686,-1.14979 2.36039,-2.62965 2.20059,-4.43957 -0.14074,-1.82346 -1.1715,-4.09413 -3.09227,-6.81201 -1.55563,-2.20109 -3.22311,-4.09352 -5.00246,-5.67726 -1.77941,-1.58374 -3.68421,-2.87794 -5.71441,-3.88262 l 7.83784,-5.53925 c 2.09147,1.82236 4.05576,3.74897 5.89288,5.77982 1.85617,2.01735 3.56884,4.13613 5.138,6.35637 4.09859,5.79942 5.90581,10.79312 5.42167,14.98111 -0.45159,4.19359 -3.25168,8.10975 -8.4003,11.7485"
     id="path4151"
     style="font-size:72px;font-style:normal;font-variant:normal;font-weight:bold;font-stretch:normal;text-align:start;line-height:125%;writing-mode:lr-tb;text-anchor:start;fill:#000000;fill-opacity:1;stroke:none;font-family:DejaVu Sans;-inkscape-font-specification:DejaVu Sans Bold" />
  <path
     d="m 709.3562,236.89782 -21.44439,10.72444 -5.66099,-11.31962 3.49021,-1.74547 12.92324,-6.46297 c 3.03949,-1.5201 5.09902,-2.6418 6.1786,-3.3651 1.08999,-0.70238 1.82364,-1.35753 2.20097,-1.96548 0.51349,-0.80714 0.78069,-1.68761 0.80161,-2.64142 0.0418,-0.96432 -0.17838,-1.92861 -0.66058,-2.89286 -1.17417,-2.34778 -3.00856,-3.73643 -5.50317,-4.16596 -2.47372,-0.44003 -5.31417,0.14194 -8.52137,1.74589 l -17.32531,8.66447 -5.62954,-11.25674 35.2166,-17.61198 5.62954,11.25674 -5.15671,2.57889 c 2.90341,0.67058 5.31425,1.71853 7.23254,3.14387 1.93916,1.41484 3.48535,3.27519 4.63856,5.58105 2.03371,4.06666 2.32751,7.77187 0.88138,11.11563 -1.43574,3.36467 -4.5328,6.23688 -9.29119,8.61662"
     id="path4153"
     style="font-size:72px;font-style:normal;font-variant:normal;font-weight:bold;font-stretch:normal;text-align:start;line-height:125%;writing-mode:lr-tb;text-anchor:start;fill:#000000;fill-opacity:1;stroke:none;font-family:DejaVu Sans;-inkscape-font-specification:DejaVu Sans Bold" />
  <path
     d="m 714.52902,269.95796 c -0.806,-2.49822 -1.83789,-4.2463 -3.09566,-5.24423 -1.25061,-0.97566 -2.70121,-1.19722 -4.35179,-0.66469 -1.51678,0.48934 -2.5482,1.37621 -3.09427,2.66062 -0.51659,1.29949 -0.48343,2.85261 0.0995,4.65936 0.72681,2.25282 2.14148,3.88971 4.24403,4.91068 2.12481,1.01372 4.40287,1.1284 6.83418,0.34403 l 1.37178,-0.44257 -2.00775,-6.2232 m 10.42136,16.84433 -21.37971,6.8976 -3.89677,-12.07837 5.55404,-1.79186 c -2.79329,-0.872 -5.03794,-2.14261 -6.73394,-3.81185 -1.67372,-1.67648 -2.97473,-3.9534 -3.90304,-6.83078 -1.25215,-3.88115 -1.144,-7.40077 0.32446,-10.55887 1.49795,-3.143 4.05366,-5.29739 7.66714,-6.46319 4.39414,-1.41765 8.10302,-0.9519 11.12663,1.39727 3.03075,2.37148 5.5896,6.79149 7.67654,13.26006 l 2.27761,7.05966 0.93683,-0.30224 c 1.89592,-0.6117 3.03778,-1.8051 3.42558,-3.5802 0.41003,-1.78232 0.10413,-4.25716 -0.9177,-7.42451 -0.8276,-2.56513 -1.85411,-4.86905 -3.07953,-6.91176 -1.22549,-2.04272 -2.65708,-3.84655 -4.29477,-5.41148 l 9.13405,-2.94686 c 1.45208,2.36363 2.75166,4.78878 3.89874,7.27545 1.1693,2.47948 2.17136,5.01293 3.00617,7.60036 2.18041,6.75852 2.41447,12.06402 0.70217,15.91651 -1.68289,3.86755 -5.52439,6.76924 -11.5245,8.70506"
     id="path4155"
     style="font-size:72px;font-style:normal;font-variant:normal;font-weight:bold;font-stretch:normal;text-align:start;line-height:125%;writing-mode:lr-tb;text-anchor:start;fill:#000000;fill-opacity:1;stroke:none;font-family:DejaVu Sans;-inkscape-font-specification:DejaVu Sans Bold" />
  <path
     d="m 743.90152,326.2451 20.82114,-3.38033 2.02819,12.49268 -53.99614,8.76632 -2.0282,-12.49268 5.62171,-0.91269 c -2.56827,-1.34016 -4.55164,-2.95332 -5.9501,-4.8395 -1.39847,-1.88623 -2.31742,-4.1827 -2.75686,-6.88943 -0.77748,-4.78887 0.48105,-9.02974 3.77559,-12.7226 3.31766,-3.69663 7.97242,-6.03133 13.96429,-7.00411 5.99184,-0.97279 11.13457,-0.22871 15.42821,2.23222 4.3167,2.45716 6.86381,6.08018 7.64133,10.86905 0.43564,2.6836 0.27696,5.14315 -0.47604,7.37868 -0.7262,2.25486 -2.08391,4.42232 -4.07312,6.50239 m -26.48847,-4.10509 c 0.43192,2.66046 1.73222,4.52698 3.90089,5.59959 2.1724,1.09568 5.10937,1.34307 8.81093,0.74215 3.70151,-0.60098 6.40937,-1.7648 8.12359,-3.49148 1.71792,-1.7036 2.36093,-3.88562 1.92903,-6.54608 -0.4282,-2.63736 -1.7285,-4.50389 -3.90088,-5.59959 -2.16869,-1.07259 -5.10379,-1.3084 -8.8053,-0.70744 -3.70155,0.60093 -6.41129,1.75319 -8.12923,3.45678 -1.7142,1.72669 -2.35721,3.90871 -1.92903,6.54607"
     id="path4157"
     style="font-size:72px;font-style:normal;font-variant:normal;font-weight:bold;font-stretch:normal;text-align:start;line-height:125%;writing-mode:lr-tb;text-anchor:start;fill:#000000;fill-opacity:1;stroke:none;font-family:DejaVu Sans;-inkscape-font-specification:DejaVu Sans Bold" />
  <path
     d="m 731.55549,373.81144 c -0.0223,-2.62493 -0.48444,-4.60154 -1.38636,-5.92984 -0.90176,-1.30491 -2.21978,-1.94998 -3.95408,-1.93524 -1.5937,0.0135 -2.84309,0.5515 -3.74815,1.61393 -0.88144,1.08564 -1.31409,2.57764 -1.29796,4.47603 0.0201,2.36708 0.88074,4.35203 2.58193,5.95485 1.7246,1.60256 3.8642,2.39301 6.41881,2.37134 l 1.44135,-0.0122 -0.0555,-6.53883 m 4.90927,19.18946 -22.46403,0.19083 -0.10781,-12.69095 5.83573,-0.0496 c -2.40488,-1.66717 -4.16703,-3.5507 -5.28647,-5.65062 -1.096,-2.10016 -1.65685,-4.66189 -1.68253,-7.6852 -0.0346,-4.07799 1.12074,-7.40433 3.46614,-9.97902 2.36903,-2.55147 5.45192,-3.84333 9.24866,-3.87558 4.61701,-0.0392 8.01704,1.51398 10.20011,4.65962 2.18322,3.16906 3.30371,8.1519 3.36147,14.94855 l 0.063,7.4177 0.98433,-0.008 c 1.99209,-0.017 3.43849,-0.81443 4.33921,-2.39242 0.9241,-1.57824 1.37203,-4.03135 1.34379,-7.35933 -0.0229,-2.69524 -0.31375,-5.20067 -0.87247,-7.5163 -0.55879,-2.31566 -1.38567,-4.46496 -2.48065,-6.44791 l 9.59731,-0.0815 c 0.67909,2.68963 1.19425,5.39238 1.5455,8.10826 0.3746,2.71565 0.57347,5.4328 0.59661,8.15147 0.0603,7.10128 -1.30242,12.23413 -4.0881,15.39857 -2.76212,3.1876 -7.29539,4.80819 -13.59982,4.86179"
     id="path4159"
     style="font-size:72px;font-style:normal;font-variant:normal;font-weight:bold;font-stretch:normal;text-align:start;line-height:125%;writing-mode:lr-tb;text-anchor:start;fill:#000000;fill-opacity:1;stroke:none;font-family:DejaVu Sans;-inkscape-font-specification:DejaVu Sans Bold" />
  <path
     d="m 38.156917,445.2129 c 0.570422,2.77795 1.494792,4.65777 2.773112,5.63948 1.282961,1.00462 3.106818,1.26414 5.471577,0.77857 2.341715,-0.4809 3.892745,-1.43346 4.653092,-2.85767 0.764969,-1.4013 0.862249,-3.49092 0.29184,-6.26887 l -1.145629,-5.5789 -13.18962,2.70849 1.145628,5.5789 M 27.850873,441.51509 8.3936001,445.51064 5.6709655,432.25215 57.08638,421.69398 l 4.158205,20.24934 c 1.390725,6.77272 1.272619,11.9651 -0.354319,15.57717 -1.622336,3.63497 -4.890026,5.95692 -9.80308,6.96587 -3.397891,0.69771 -6.357061,0.44402 -8.877517,-0.76107 -2.515818,-1.18221 -4.629717,-3.32022 -6.341704,-6.41405 -0.04084,1.89855 -0.649758,3.71041 -1.826767,5.4356 -1.149395,1.74335 -3.054031,3.65381 -5.713913,5.73136 l -13.123563,10.1959 -2.899429,-14.11943 11.489306,-8.89129 c 2.312024,-1.79076 3.80433,-3.4371 4.476921,-4.939 0.677258,-1.47899 0.794317,-3.29751 0.351177,-5.45559 l -0.770824,-3.7537"
     id="path4076"
     style="font-size:72px;font-style:normal;font-variant:normal;font-weight:bold;font-stretch:normal;text-align:start;line-height:125%;writing-mode:lr-tb;text-anchor:start;fill:#000000;fill-opacity:1;stroke:none;font-family:DejaVu Sans;-inkscape-font-specification:DejaVu Sans Bold" />
  <path
     d="m 40.291687,496.54677 c -0.870761,-2.47639 -1.947801,-4.19701 -3.231121,-5.16187 -1.275588,-0.94277 -2.731459,-1.12649 -4.367618,-0.55117 -1.50353,0.52865 -2.511516,1.44207 -3.023961,2.74025 -0.482588,1.3125 -0.40901,2.86423 0.220734,4.6552 0.785204,2.23314 2.242009,3.83265 4.370419,4.79854 2.150483,0.95806 4.430755,1.0134 6.840823,0.16601 l 1.359796,-0.47813 -2.169072,-6.16883 m 10.856312,16.56734 -21.192917,7.45181 -4.209864,-11.97284 5.505515,-1.93583 c -2.815044,-0.79899 -5.092005,-2.01075 -6.830888,-3.63527 -1.716791,-1.63234 -3.076633,-3.87463 -4.079531,-6.72686 -1.352757,-3.84724 -1.336261,-7.36848 0.04949,-10.56374 1.415625,-3.18093 3.914388,-5.40112 7.496299,-6.66058 4.355752,-1.53157 8.075491,-1.16251 11.159229,1.10715 3.091464,2.29178 5.764502,6.64369 8.019121,13.05574 l 2.460613,6.99797 0.928642,-0.32652 c 1.879356,-0.66085 2.989762,-1.88357 3.331221,-3.66816 0.363494,-1.79239 -0.0067,-4.25843 -1.110659,-7.39811 -0.894098,-2.54271 -1.980234,-4.81913 -3.258411,-6.82925 -1.278244,-2.01013 -2.756304,-3.77607 -4.434184,-5.29784 l 9.054251,-3.18364 c 1.513116,2.32503 2.875384,4.71553 4.086808,7.1715 1.23345,2.4482 2.301113,4.95471 3.202994,7.51953 2.35561,6.69947 2.727696,11.99707 1.11626,15.89284 -1.581644,3.91005 -5.346303,6.91074 -11.293987,9.0021"
     id="path4078"
     style="font-size:72px;font-style:normal;font-variant:normal;font-weight:bold;font-stretch:normal;text-align:start;line-height:125%;writing-mode:lr-tb;text-anchor:start;fill:#000000;fill-opacity:1;stroke:none;font-family:DejaVu Sans;-inkscape-font-specification:DejaVu Sans Bold" />
  <path
     d="m 76.626243,540.14185 18.808737,-9.5487 5.72922,11.28524 -48.777323,24.76297 -5.729221,-11.28524 5.078359,-2.57815 c -2.854094,-0.49616 -5.233928,-1.4302 -7.139509,-2.8021 -1.905607,-1.37196 -3.479069,-3.28049 -4.720391,-5.7256 -2.196207,-4.32603 -2.286166,-8.74878 -0.269877,-13.26827 2.037173,-4.5301 5.762129,-8.16911 11.174879,-10.91701 5.412712,-2.7479 10.538303,-3.60209 15.376788,-2.56257 4.859315,1.02893 8.38709,3.70639 10.583334,8.03239 1.230675,2.42424 1.827049,4.81567 1.789122,7.1743 -0.0065,2.36891 -0.641217,4.84649 -1.904118,7.43274 m -26.483046,4.13992 c 1.220092,2.40331 3.026177,3.78633 5.418261,4.14906 2.402646,0.38358 5.275866,-0.27339 8.619671,-1.97092 3.343739,-1.69756 5.569771,-3.62935 6.678101,-5.79536 1.118862,-2.14514 1.068257,-4.41937 -0.151815,-6.8227 -1.20954,-2.38244 -3.015625,-3.76546 -5.418261,-4.14906 -2.392093,-0.36271 -5.260009,0.30471 -8.603756,2.00226 -3.343797,1.69754 -5.575134,3.61888 -6.694016,5.76402 -1.10831,2.16601 -1.057705,4.44024 0.151815,6.8227"
     id="path4080"
     style="font-size:72px;font-style:normal;font-variant:normal;font-weight:bold;font-stretch:normal;text-align:start;line-height:125%;writing-mode:lr-tb;text-anchor:start;fill:#000000;fill-opacity:1;stroke:none;font-family:DejaVu Sans;-inkscape-font-specification:DejaVu Sans Bold" />
  <path
     d="m 92.17017,555.63292 6.791479,10.5963 L 65.811203,587.4763 59.019724,576.88 92.17017,555.63292 m 12.90499,-8.27119 6.79148,10.5963 -8.64279,5.53942 -6.791479,-10.5963 8.642789,-5.53942"
     id="path4082"
     style="font-size:72px;font-style:normal;font-variant:normal;font-weight:bold;font-stretch:normal;text-align:start;line-height:125%;writing-mode:lr-tb;text-anchor:start;fill:#000000;fill-opacity:1;stroke:none;font-family:DejaVu Sans;-inkscape-font-specification:DejaVu Sans Bold" />
  <path
     d="m 108.5853,593.09149 c -1.72547,-2.19128 -3.83673,-3.24349 -6.33378,-3.15663 -2.464203,0.0908 -5.178627,1.30337 -8.14328,3.63778 -2.964705,2.33441 -4.78937,4.69594 -5.474001,7.08457 -0.651757,2.39254 -0.114908,4.68446 1.610548,6.87576 1.696415,2.15444 3.776718,3.18628 6.240915,3.09552 2.482556,-0.10529 5.206188,-1.32514 8.170898,-3.65954 2.96464,-2.33442 4.7801,-4.68869 5.44638,-7.06282 0.68461,-2.38864 0.17872,-4.66018 -1.51768,-6.81464 m 7.07104,-5.56779 c 4.1903,5.32169 6.02362,10.60504 5.49998,15.85006 -0.50925,5.26341 -3.305,9.89605 -8.38727,13.89792 -5.08235,4.00183 -10.24151,5.63296 -15.477497,4.89339 -5.221549,-0.7212 -9.92748,-3.74264 -14.117808,-9.06431 -4.204857,-5.34012 -6.059929,-10.65109 -5.565223,-15.93293 0.509188,-5.26342 3.30494,-9.89606 8.387264,-13.89792 5.082289,-4.00184 10.241452,-5.63297 15.477504,-4.89339 5.25048,0.75802 9.97816,3.80708 14.18305,9.14718"
     id="path4084"
     style="font-size:72px;font-style:normal;font-variant:normal;font-weight:bold;font-stretch:normal;text-align:start;line-height:125%;writing-mode:lr-tb;text-anchor:start;fill:#000000;fill-opacity:1;stroke:none;font-family:DejaVu Sans;-inkscape-font-specification:DejaVu Sans Bold" />
  <path
     d="m 152.07113,667.73653 -16.1597,-13.6668 -8.72515,5.14467 -10.38838,-8.7858 48.73896,-27.52275 12.3211,10.42037 -19.0502,52.63153 -10.38839,-8.7858 3.65176,-9.43542 m -7.29419,-18.92299 10.97893,9.28526 8.00914,-20.57623 -18.98807,11.29097"
     id="path4086"
     style="font-size:72px;font-style:normal;font-variant:normal;font-weight:bold;font-stretch:normal;text-align:start;line-height:125%;writing-mode:lr-tb;text-anchor:start;fill:#000000;fill-opacity:1;stroke:none;font-family:DejaVu Sans;-inkscape-font-specification:DejaVu Sans Bold" />
  <path
     d="m 212.01914,680.22841 c 2.61043,-1.29105 5.17588,-1.92856 7.69638,-1.91253 2.55246,0.008 4.95954,0.67788 7.22124,2.0104 3.89721,2.29623 6.15771,5.24666 6.78148,8.8513 0.62363,3.60464 -0.41488,7.69888 -3.11555,12.28274 l -12.17119,20.65764 -10.90432,-6.42468 10.42225,-17.68923 c 0.1748,-0.25063 0.34551,-0.51729 0.51214,-0.79998 0.1867,-0.27082 0.43474,-0.66873 0.74414,-1.19374 1.41575,-2.403 2.08555,-4.34782 2.00942,-5.83447 -0.0643,-1.50685 -0.88403,-2.72427 -2.45904,-3.65228 -2.05977,-1.21355 -4.15472,-1.30534 -6.28488,-0.27538 -2.11007,1.04187 -4.13112,3.15626 -6.06317,6.34318 l -9.81547,16.65938 -10.90432,-6.42467 10.42224,-17.68923 c 2.21291,-3.75593 3.31157,-6.35937 3.296,-7.81034 -0.004,-1.47115 -0.83353,-2.69452 -2.48934,-3.67013 -2.07993,-1.22543 -4.19093,-1.31308 -6.33301,-0.26293 -2.13024,1.02997 -4.1293,3.13012 -5.99719,6.30044 l -9.83332,16.68967 -10.90432,-6.42467 19.98787,-33.92456 10.90432,6.42467 -2.92679,4.96753 c 2.46298,-1.1331 4.83824,-1.67864 7.12578,-1.63665 2.30765,0.0539 4.50145,0.69362 6.58139,1.91905 2.34236,1.38013 4.07903,3.16503 5.21001,5.35472 1.13088,2.18971 1.55996,4.57796 1.28725,7.16475"
     id="path4088"
     style="font-size:72px;font-style:normal;font-variant:normal;font-weight:bold;font-stretch:normal;text-align:start;line-height:125%;writing-mode:lr-tb;text-anchor:start;fill:#000000;fill-opacity:1;stroke:none;font-family:DejaVu Sans;-inkscape-font-specification:DejaVu Sans Bold" />
  <path
     d="m 252.49016,716.24014 c -2.44612,-0.95249 -4.45319,-1.25615 -6.02123,-0.91099 -1.54623,0.35369 -2.634,1.33861 -3.26331,2.95477 -0.57832,1.48514 -0.5419,2.84493 0.10925,4.07939 0.68146,1.22113 1.90672,2.17612 3.67579,2.86498 2.20583,0.85895 4.36839,0.79558 6.48771,-0.1901 2.12776,-1.00752 3.65515,-2.70157 4.58216,-5.08215 l 0.52302,-1.34316 -6.09339,-2.37274 m 19.64197,2.55526 -8.1515,20.93376 -11.82642,-4.60515 2.1176,-5.43819 c -2.43997,1.61537 -4.8426,2.5536 -7.20789,2.81469 -2.35684,0.23924 -4.94393,-0.18967 -7.76129,-1.28673 -3.80019,-1.47978 -6.46109,-3.78608 -7.98271,-6.91891 -1.49129,-3.14617 -1.54807,-6.4883 -0.17035,-10.02641 1.67537,-4.30249 4.37846,-6.88434 8.1093,-7.74555 3.75264,-0.85267 8.79579,-0.0459 15.12945,2.42039 l 6.9124,2.69166 0.35719,-0.91729 c 0.72283,-1.85639 0.51846,-3.49538 -0.61311,-4.91696 -1.12315,-1.44338 -3.23535,-2.76889 -6.33662,-3.97654 -2.51164,-0.97799 -4.94633,-1.6368 -7.30408,-1.97644 -2.3578,-0.33959 -4.66049,-0.36852 -6.90808,-0.0868 l 3.48256,-8.94353 c 2.74972,0.36652 5.45084,0.89014 8.10338,1.57085 2.66099,0.65895 5.25823,1.48166 7.79172,2.46814 6.61751,2.57687 10.87931,5.74549 12.7854,9.50588 1.93634,3.74709 1.76069,8.55812 -0.52695,14.4331"
     id="path4090"
     style="font-size:72px;font-style:normal;font-variant:normal;font-weight:bold;font-stretch:normal;text-align:start;line-height:125%;writing-mode:lr-tb;text-anchor:start;fill:#000000;fill-opacity:1;stroke:none;font-family:DejaVu Sans;-inkscape-font-specification:DejaVu Sans Bold" />
  <path
     d="m 301.71378,697.77076 -2.90132,10.79666 12.52819,3.36662 -2.33565,8.69165 -12.52819,-3.36662 -4.33373,16.12708 c -0.47446,1.76549 -0.44599,3.0594 0.0854,3.88171 0.53743,0.79969 1.84733,1.47933 3.92973,2.03891 l 6.24712,1.67875 -2.33565,8.69165 -10.42319,-2.80096 c -4.79852,-1.28948 -7.93739,-3.2008 -9.41659,-5.73397 -1.45051,-2.54972 -1.53102,-6.22384 -0.24154,-11.02236 l 4.33373,-16.12708 -6.04341,-1.62401 2.33565,-8.69164 6.04341,1.624 2.90132,-10.79665 12.15473,3.26626"
     id="path4092"
     style="font-size:72px;font-style:normal;font-variant:normal;font-weight:bold;font-stretch:normal;text-align:start;line-height:125%;writing-mode:lr-tb;text-anchor:start;fill:#000000;fill-opacity:1;stroke:none;font-family:DejaVu Sans;-inkscape-font-specification:DejaVu Sans Bold" />
  <path
     d="m 350.55191,738.14924 -0.54715,3.54395 -29.08123,-4.48984 c -0.14949,2.96505 0.56648,5.31667 2.14792,7.05487 1.5814,1.73822 3.99352,2.85765 7.23638,3.35831 2.61739,0.40411 5.35173,0.43496 8.20302,0.0926 2.87795,-0.36198 5.88623,-1.10701 9.02483,-2.23508 l -1.48052,9.58951 c -3.1134,0.65765 -6.18385,1.03735 -9.21135,1.1391 -3.03114,0.1249 -6.01755,-0.0397 -8.95923,-0.49389 -7.04159,-1.08715 -12.24429,-3.71646 -15.60811,-7.88794 -3.3371,-4.19106 -4.50678,-9.51784 -3.50903,-15.98034 0.97985,-6.34666 3.66146,-11.04326 8.04483,-14.08983 4.4065,-3.04293 9.96841,-4.04587 16.68572,-3.00883 6.11501,0.94414 10.71811,3.54016 13.80931,7.78809 3.11428,4.25155 4.19581,9.458 3.24461,15.61936 m -12.14768,-6.10863 c 0.36473,-2.36262 -0.0369,-4.36927 -1.20494,-6.01997 -1.14136,-1.67024 -2.82385,-2.67703 -5.04747,-3.02036 -2.40899,-0.37189 -4.47176,0.009 -6.18833,1.14338 -1.71303,1.11103 -2.95153,2.9119 -3.7155,5.40259 l 16.15624,2.49436"
     id="path4094"
     style="font-size:72px;font-style:normal;font-variant:normal;font-weight:bold;font-stretch:normal;text-align:start;line-height:125%;writing-mode:lr-tb;text-anchor:start;fill:#000000;fill-opacity:1;stroke:none;font-family:DejaVu Sans;-inkscape-font-specification:DejaVu Sans Bold" />
  <path
     d="m 356.96143,743.11906 0.52749,-24.04109 12.65321,0.27763 -0.0864,3.93655 c -0.0468,2.13233 -0.11738,4.81502 -0.21175,8.04807 -0.0939,3.20968 -0.15264,5.35343 -0.17627,6.43128 -0.0694,3.16332 -0.0375,5.44972 0.0956,6.85922 0.13367,1.38609 0.39275,2.39983 0.77723,3.04121 0.49748,0.83144 1.15141,1.47875 1.96178,1.94194 0.83375,0.46372 1.78957,0.70741 2.86746,0.73105 2.62435,0.0576 4.70845,-0.90474 6.25234,-2.88698 1.54382,-1.98223 2.35508,-4.76588 2.43377,-8.35097 l 0.42647,-19.43673 12.58291,0.27609 -0.86373,39.36552 -12.58291,-0.27608 0.12493,-5.69394 c -1.9484,2.25468 -4.00081,3.90927 -6.15724,4.96378 -2.13255,1.03159 -4.47584,1.51937 -7.02989,1.46333 -4.54579,-0.0997 -7.98312,-1.57002 -10.31197,-4.41085 -2.30545,-2.84032 -3.39981,-6.91999 -3.2831,-12.23903"
     id="path4096"
     style="font-size:72px;font-style:normal;font-variant:normal;font-weight:bold;font-stretch:normal;text-align:start;line-height:125%;writing-mode:lr-tb;text-anchor:start;fill:#000000;fill-opacity:1;stroke:none;font-family:DejaVu Sans;-inkscape-font-specification:DejaVu Sans Bold" />
  <path
     d="m 434.9,727.25588 c -1.14382,-0.41355 -2.27486,-0.68708 -3.39311,-0.8206 -1.09709,-0.15892 -2.19414,-0.18844 -3.29113,-0.0886 -3.22106,0.29341 -5.61226,1.55849 -7.1736,3.79525 -1.54015,2.21134 -2.13483,5.24262 -1.78403,9.09384 l 1.64549,18.06584 -12.53406,1.14164 -3.5716,-39.21268 12.53405,-1.14164 0.58676,6.44209 c 1.37665,-2.71415 3.0505,-4.74937 5.02156,-6.10567 1.99224,-1.38168 4.44717,-2.20541 7.3648,-2.47119 0.42011,-0.0382 0.87738,-0.0563 1.37182,-0.0543 0.49226,-0.0213 1.21053,-0.0161 2.15483,0.0155 L 434.9,727.25584"
     id="path4098"
     style="font-size:72px;font-style:normal;font-variant:normal;font-weight:bold;font-stretch:normal;text-align:start;line-height:125%;writing-mode:lr-tb;text-anchor:start;fill:#000000;fill-opacity:1;stroke:none;font-family:DejaVu Sans;-inkscape-font-specification:DejaVu Sans Bold" />
  <path
     d="m 466.70829,711.4872 1.82142,9.38743 c -2.86028,-0.59098 -5.57493,-0.92375 -8.14394,-0.99831 -2.56906,-0.0745 -4.94648,0.1003 -7.13226,0.52437 -2.34687,0.45538 -4.03748,1.09378 -5.07181,1.91517 -1.01582,0.794 -1.40542,1.8007 -1.1688,3.02011 0.19195,0.98939 0.76493,1.66608 1.71892,2.03007 0.97699,0.35958 2.60595,0.44938 4.88688,0.26941 l 2.23457,-0.11126 c 6.48353,-0.42234 10.99678,0.0747 13.53975,1.49129 2.5429,1.4166 4.19606,4.0921 4.95949,8.02651 0.79906,4.11852 -0.11905,7.50779 -2.75434,10.16782 -2.63536,2.66004 -6.96712,4.57488 -12.9953,5.74451 -2.55395,0.49553 -5.24009,0.80185 -8.05843,0.91894 -2.7909,0.13564 -5.70249,0.0798 -8.73478,-0.16744 l -1.82141,-9.38743 c 2.69403,0.71878 5.38756,1.12727 8.08058,1.22548 2.716,0.0938 5.4085,-0.11828 8.07749,-0.63614 2.41586,-0.46874 4.16879,-1.15504 5.2588,-2.0589 1.08995,-0.90383 1.50771,-2.0115 1.25328,-3.32299 -0.21431,-1.10439 -0.79845,-1.8386 -1.75241,-2.20263 -0.93547,-0.39147 -2.68617,-0.49347 -5.2521,-0.30599 l -2.22786,0.14577 c -5.63295,0.37672 -9.73462,-0.15248 -12.30503,-1.58761 -2.57041,-1.43509 -4.22391,-4.05084 -4.96052,-7.84725 -0.79463,-4.09547 0.0196,-7.40489 2.4427,-9.92829 2.42309,-2.52332 6.5337,-4.3475 12.33182,-5.47253 2.27782,-0.44192 4.70417,-0.73364 7.27907,-0.87516 2.57486,-0.14143 5.40626,-0.12975 8.49422,0.035"
     id="path4100"
     style="font-size:72px;font-style:normal;font-variant:normal;font-weight:bold;font-stretch:normal;text-align:start;line-height:125%;writing-mode:lr-tb;text-anchor:start;fill:#000000;fill-opacity:1;stroke:none;font-family:DejaVu Sans;-inkscape-font-specification:DejaVu Sans Bold" />
  <path
     d="m 522.19669,697.70559 -7.8289,-19.58711 11.75226,-4.69733 20.30294,50.79589 -11.75226,4.69733 -2.1138,-5.28851 c -0.74935,2.7983 -1.89241,5.0851 -3.42918,6.8604 -1.53683,1.77532 -3.57839,3.17185 -6.12469,4.1896 -4.50505,1.80065 -8.91813,1.49484 -13.23926,-0.91744 -4.32984,-2.43402 -7.62125,-6.4694 -9.87423,-12.10615 -2.25298,-5.63671 -2.6455,-10.81814 -1.17756,-15.54431 1.45924,-4.74787 4.44138,-8.02214 8.94641,-9.82283 2.52455,-1.00901 4.95973,-1.38919 7.30552,-1.14055 2.35884,0.21828 4.76976,1.07194 7.23275,2.56101 m 1.75565,26.74712 c 2.50278,-1.00035 4.04173,-2.67555 4.61686,-5.02563 0.59685,-2.35873 0.19939,-5.27918 -1.19239,-8.76136 -1.39183,-3.48212 -3.11686,-5.87194 -5.17511,-7.16948 -2.03652,-1.30617 -4.30617,-1.45909 -6.80895,-0.45877 -2.48104,0.9917 -4.01999,2.6669 -4.61686,5.02562 -0.57512,2.35009 -0.16677,5.26619 1.22504,8.74832 1.39179,3.48217 3.10595,5.87634 5.14246,7.18253 2.05825,1.29752 4.3279,1.45044 6.80895,0.45877"
     id="path4102"
     style="font-size:72px;font-style:normal;font-variant:normal;font-weight:bold;font-stretch:normal;text-align:start;line-height:125%;writing-mode:lr-tb;text-anchor:start;fill:#000000;fill-opacity:1;stroke:none;font-family:DejaVu Sans;-inkscape-font-specification:DejaVu Sans Bold" />
  <path
     d="m 549.50826,705.79448 -11.85307,-20.92264 11.01191,-6.23846 1.94086,3.42593 c 1.0513,1.85575 2.36388,4.19646 3.93776,7.02213 1.56233,2.80535 2.6092,4.67703 3.14063,5.61506 1.55961,2.753 2.75737,4.70083 3.59329,5.84348 0.82435,1.12231 1.56582,1.86055 2.22442,2.21473 0.85297,0.45959 1.74608,0.68094 2.67933,0.66403 0.95361,-0.0284 1.89945,-0.30836 2.83752,-0.8398 2.28393,-1.29388 3.5817,-3.18739 3.8933,-5.68054 0.31157,-2.49309 -0.41642,-5.29967 -2.18397,-8.41974 l -9.58296,-16.91553 10.95073,-6.2038 19.40855,34.25929 -10.95074,6.2038 -2.80731,-4.95536 c -0.51965,2.93425 -1.43582,5.40623 -2.74854,7.41595 -1.30391,1.97781 -3.06725,3.59633 -5.29,4.85556 -3.95615,2.24123 -7.66161,2.73768 -11.1164,1.48935 -3.43441,-1.25986 -6.46284,-4.20434 -9.08531,-8.83344"
     id="path4104"
     style="font-size:72px;font-style:normal;font-variant:normal;font-weight:bold;font-stretch:normal;text-align:start;line-height:125%;writing-mode:lr-tb;text-anchor:start;fill:#000000;fill-opacity:1;stroke:none;font-family:DejaVu Sans;-inkscape-font-specification:DejaVu Sans Bold" />
  <path
     d="m 651.8625,648.23814 c -1.02536,2.60436 -2.33813,5.03951 -3.9383,7.30548 -1.60023,2.26601 -3.5044,4.36171 -5.71252,6.28709 -6.58912,5.74541 -13.4111,8.45988 -20.46596,8.14341 -7.07027,-0.3341 -13.35487,-3.65439 -18.85382,-9.96086 -5.51433,-6.3241 -7.94793,-13.00228 -7.30082,-20.03457 0.63175,-7.04986 4.24217,-13.44751 10.83125,-19.19296 2.20816,-1.92534 4.54362,-3.52641 7.00639,-4.80322 2.46279,-1.27668 5.05402,-2.24563 7.7737,-2.90685 l 7.13939,8.18779 c -3.01462,0.35865 -5.70236,1.0386 -8.06324,2.03986 -2.36089,1.00138 -4.55707,2.38772 -6.58857,4.15903 -3.63901,3.17311 -5.48415,6.83433 -5.53543,10.98366 -0.0512,4.14942 1.70989,8.27326 5.28342,12.37154 3.55814,4.08068 7.39607,6.37811 11.51378,6.89231 4.1177,0.51425 7.99606,-0.81517 11.6351,-3.98826 2.03147,-1.77134 3.70395,-3.75829 5.01744,-5.96087 1.31344,-2.20252 2.35304,-4.77264 3.11881,-7.71038 l 7.13938,8.1878"
     id="path4106"
     style="font-size:72px;font-style:normal;font-variant:normal;font-weight:bold;font-stretch:normal;text-align:start;line-height:125%;writing-mode:lr-tb;text-anchor:start;fill:#000000;fill-opacity:1;stroke:none;font-family:DejaVu Sans;-inkscape-font-specification:DejaVu Sans Bold" />
  <path
     d="m 659.56342,617.71478 c -1.73447,1.97037 -2.70881,3.75116 -2.92302,5.34238 -0.19873,1.57367 0.35282,2.93349 1.65466,4.07946 1.19627,1.05309 2.4859,1.48578 3.86889,1.29807 1.38087,-0.22075 2.69851,-1.04362 3.95291,-2.46862 1.56411,-1.7768 2.24712,-3.82965 2.04904,-6.15856 -0.21569,-2.34435 -1.28231,-4.36053 -3.19986,-6.04858 l -1.08193,-0.95241 -4.32069,4.90826 m 9.14409,-17.57048 16.86224,14.84365 -8.38585,9.52624 -4.38048,-3.85609 c 0.67938,2.84627 0.73562,5.42498 0.1687,7.73613 -0.58454,2.29569 -1.87567,4.57824 -3.87339,6.84763 -2.69463,3.06107 -5.77436,4.76833 -9.23919,5.12176 -3.46694,0.32037 -6.62538,-0.77384 -9.47534,-3.28263 -3.46568,-3.05079 -4.96244,-6.47605 -4.49029,-10.27577 0.48766,-3.81728 2.977,-8.27681 7.46803,-13.37861 l 4.90142,-5.56797 -0.73888,-0.65043 c -1.49534,-1.31629 -3.10486,-1.6871 -4.82855,-1.11243 -1.74127,0.55928 -3.71143,2.08795 -5.9105,4.58602 -1.78092,2.02315 -3.23564,4.08362 -4.36418,6.18141 -1.12851,2.09786 -1.94631,4.25063 -2.45342,6.45832 l -7.20406,-6.34165 c 1.28837,-2.45671 2.7076,-4.81383 4.2577,-7.07138 1.53255,-2.27297 3.19702,-4.42982 4.99342,-6.47058 4.69237,-5.33042 9.13167,-8.24516 13.31791,-8.74422 4.18414,-0.53204 8.64237,1.28482 13.37471,5.4506"
     id="path4108"
     style="font-size:72px;font-style:normal;font-variant:normal;font-weight:bold;font-stretch:normal;text-align:start;line-height:125%;writing-mode:lr-tb;text-anchor:start;fill:#000000;fill-opacity:1;stroke:none;font-family:DejaVu Sans;-inkscape-font-specification:DejaVu Sans Bold" />
  <path
     d="m 695.04673,559.43852 19.89333,13.38397 -7.06485,10.50088 -3.23777,-2.17833 -11.98851,-8.06571 c -2.81968,-1.897 -4.81007,-3.13725 -5.97119,-3.72073 -1.14803,-0.60285 -2.07951,-0.91881 -2.79444,-0.94788 -0.95535,-0.0495 -1.85326,0.15148 -2.69373,0.60291 -0.85991,0.43844 -1.59077,1.1049 -2.1926,1.99938 -1.4653,2.178 -1.7707,4.45836 -0.91622,6.8411 0.83506,2.36973 2.7402,4.55542 5.71544,6.55711 l 16.07218,10.81315 -7.0256,10.44254 -32.66941,-21.97955 7.02561,-10.44254 4.78373,3.21843 c -0.84597,-2.85723 -1.12094,-5.47157 -0.82492,-7.84303 0.27661,-2.38445 1.13448,-4.64623 2.5736,-6.78534 2.53813,-3.77249 5.61837,-5.85262 9.24075,-6.2404 3.63548,-0.40711 7.66034,0.87423 12.0746,3.84404"
     id="path4110"
     style="font-size:72px;font-style:normal;font-variant:normal;font-weight:bold;font-stretch:normal;text-align:start;line-height:125%;writing-mode:lr-tb;text-anchor:start;fill:#000000;fill-opacity:1;stroke:none;font-family:DejaVu Sans;-inkscape-font-specification:DejaVu Sans Bold" />
  <path
     d="m 712.79459,538.88312 c -1.17098,2.34936 -1.6559,4.32051 -1.45476,5.91343 0.21161,1.57199 1.09353,2.74482 2.64577,3.51849 1.42639,0.71098 2.78386,0.79837 4.07242,0.26217 1.27804,-0.56759 2.3405,-1.70093 3.18738,-3.40003 1.05597,-2.11858 1.18952,-4.27795 0.40065,-6.47812 -0.80986,-2.21056 -2.35799,-3.88567 -4.64441,-5.02533 l -1.29004,-0.64299 -2.91701,5.85238 m 4.33084,-19.32823 20.10576,10.02137 -5.66152,11.35865 -5.2231,-2.60336 c 1.3868,2.57675 2.10265,5.05475 2.14757,7.43398 0.0239,2.36883 -0.63847,4.9062 -1.98718,7.61212 -1.81922,3.64988 -4.35794,6.09003 -7.61617,7.32046 -3.26874,1.19901 -6.60219,0.95163 -10.00035,-0.74213 -4.13231,-2.05967 -6.45765,-4.98635 -6.97603,-8.78004 -0.50788,-3.81464 0.75418,-8.76352 3.78619,-14.84667 l 3.30908,-6.63899 -0.881,-0.43912 c -1.78297,-0.88866 -3.43375,-0.83418 -4.95234,0.16344 -1.53954,0.98724 -3.05163,2.97015 -4.5363,5.94875 -1.20233,2.4123 -2.07982,4.77699 -2.63245,7.09409 -0.5526,2.31714 -0.7908,4.60766 -0.71461,6.87157 l -8.58978,-4.28143 c 0.61505,-2.70499 1.38213,-5.34731 2.30124,-7.92696 0.89819,-2.59004 1.95368,-5.1017 3.16646,-7.53499 3.16796,-6.35576 6.71101,-10.31176 10.62915,-11.868 3.90765,-1.58757 8.68277,-0.97515 14.32538,1.83726"
     id="path4112"
     style="font-size:72px;font-style:normal;font-variant:normal;font-weight:bold;font-stretch:normal;text-align:start;line-height:125%;writing-mode:lr-tb;text-anchor:start;fill:#000000;fill-opacity:1;stroke:none;font-family:DejaVu Sans;-inkscape-font-specification:DejaVu Sans Bold" />
  <path
     d="m 718.81771,482.43302 -19.94499,-6.86614 4.11969,-11.96699 51.72399,17.80618 -4.11968,11.96699 -5.38514,-1.85386 c 1.62939,2.39523 2.6143,4.75446 2.95473,7.07771 0.34042,2.32329 0.0643,4.78135 -0.82825,7.37418 -1.57922,4.58736 -4.69336,7.72916 -9.34244,9.42541 -4.67124,1.68864 -9.87672,1.545 -15.61645,-0.43093 -5.7397,-1.97591 -9.91944,-5.06316 -12.53923,-9.26176 -2.64188,-4.2062 -3.17323,-8.60297 -1.59406,-13.19035 0.885,-2.57065 2.18776,-4.66288 3.90829,-6.27669 1.70605,-1.64352 3.92723,-2.91144 6.66354,-3.80375 m 21.39951,16.1416 c 0.87734,-2.54849 0.61412,-4.80801 -0.78967,-6.77854 -1.39616,-1.99263 -3.86713,-3.59929 -7.41291,-4.81997 -3.54576,-1.22061 -6.4821,-1.47544 -8.80901,-0.76449 -2.31926,0.68886 -3.91757,2.30754 -4.79493,4.85603 -0.86968,2.52639 -0.60646,4.78591 0.78968,6.77855 1.40381,1.97053 3.87859,3.5661 7.42435,4.78672 3.54578,1.22067 6.4783,1.48658 8.79757,0.79773 2.32691,-0.71096 3.92521,-2.32964 4.79492,-4.85603"
     id="path4114"
     style="font-size:72px;font-style:normal;font-variant:normal;font-weight:bold;font-stretch:normal;text-align:start;line-height:125%;writing-mode:lr-tb;text-anchor:start;fill:#000000;fill-opacity:1;stroke:none;font-family:DejaVu Sans;-inkscape-font-specification:DejaVu Sans Bold" />
  <path
     d="m 743.97922,448.78396 c -0.5216,2.57268 -0.47871,4.60214 0.12867,6.08839 0.61207,1.46332 1.76799,2.36729 3.46777,2.71191 1.56197,0.31672 2.89566,0.0491 4.00107,-0.80298 1.0871,-0.87963 1.81927,-2.24974 2.19651,-4.11034 0.47039,-2.31996 0.0393,-4.44008 -1.29316,-6.36037 -1.35546,-1.92489 -3.28506,-3.14117 -5.78881,-3.64885 l -1.41266,-0.28642 -1.29939,6.40866 m -0.83014,-19.79008 22.01686,4.46402 -2.52193,12.43831 -5.71956,-1.15966 c 2.00763,2.12892 3.34166,4.33646 4.0021,6.62264 0.63746,2.28157 0.6558,4.90391 0.055,7.86703 -0.81038,3.99682 -2.62937,7.01189 -5.457,9.04524 -2.84593,2.00573 -6.12948,2.63135 -9.85064,1.87686 -4.5251,-0.91748 -7.52991,-3.14094 -9.01445,-6.67038 -1.47983,-3.55239 -1.54445,-8.65926 -0.19386,-15.32061 l 1.47404,-7.27004 -0.96475,-0.1956 c -1.95244,-0.39584 -3.5326,0.0849 -4.7405,1.44223 -1.23082,1.35274 -2.1769,3.65997 -2.83827,6.9217 -0.53556,2.64158 -0.76973,5.15294 -0.70252,7.53408 0.0673,2.38117 0.43127,4.6551 1.09199,6.82178 l -9.40626,-1.90716 c -0.10754,-2.77195 -0.052,-5.5228 0.16664,-8.25256 0.19573,-2.73436 0.5637,-5.43382 1.10391,-8.09838 1.41119,-6.95991 3.80702,-11.69944 7.18748,-14.2186 3.3622,-2.5467 8.13276,-3.19366 14.3117,-1.9409"
     id="path4116"
     style="font-size:72px;font-style:normal;font-variant:normal;font-weight:bold;font-stretch:normal;text-align:start;line-height:125%;writing-mode:lr-tb;text-anchor:start;fill:#000000;fill-opacity:1;stroke:none;font-family:DejaVu Sans;-inkscape-font-specification:DejaVu Sans Bold" />
</svg>
