<?xml version="1.0" encoding="UTF-8" standalone="no"?>
<!-- Created with Inkscape (http://www.inkscape.org/) -->

<svg
   xmlns:dc="http://purl.org/dc/elements/1.1/"
   xmlns:cc="http://creativecommons.org/ns#"
   xmlns:rdf="http://www.w3.org/1999/02/22-rdf-syntax-ns#"
   xmlns:svg="http://www.w3.org/2000/svg"
   xmlns="http://www.w3.org/2000/svg"
   version="1.0"
   width="516.98682"
   height="606"
   id="svg2">
  <defs
     id="defs4" />
  <metadata
     id="metadata7">
    <rdf:RDF>
      <cc:Work
         rdf:about="">
        <dc:format>image/svg+xml</dc:format>
        <dc:type
           rdf:resource="http://purl.org/dc/dcmitype/StillImage" />
        <dc:title></dc:title>
        <dc:creator>
          <cc:Agent>
            <dc:title>Tyler Tidman VA3DGN</dc:title>
          </cc:Agent>
        </dc:creator>
      </cc:Work>
    </rdf:RDF>
  </metadata>
  <g
     id="g3137">
    <g
       id="g3127">
      <path
         d="m 382.76409,245.57864 -28.03748,117.86628 -5.14242,0 0.21179,5.84385 21.68116,0.1912 -0.51014,-6.1855 -7.16253,-0.1504 5.78011,-31.2645 21.02299,-0.1504 7.01449,31.88406 -7.01449,0 0.31884,5.48406 50.56811,0 -0.12754,-5.61161 -7.52464,0 -27.16521,-117.71592 -23.91304,-0.19121 z m -3.22936,43.08022 9.34878,34.6531 -17.40172,0.1708 8.05294,-34.82392 z"
         id="path3406"
         style="fill:#000000;fill-opacity:1;fill-rule:evenodd;stroke:none" />
      <path
         d="m 318.5496,245.83371 c -26.67632,0.10631 -53.35264,0.21257 -80.02898,0.31884 8.31112,19.0454 16.62222,38.09082 24.93333,57.13623 -9.45893,21.89372 -18.91785,43.78742 -28.3768,65.68115 22.61641,0.0636 45.23285,0.12754 67.84927,0.1912 -0.49102,-1.67468 0.71284,-5.0639 -0.87701,-5.62706 -2.59849,-0.0586 -5.19696,-0.11713 -7.79545,-0.1759 0.0424,-19.47053 0.085,-38.94105 0.12753,-58.41158 6.1116,1.62932 8.46984,7.57289 8.7289,13.57979 1.52063,12.5585 -0.5909,25.54989 2.87245,37.83634 2.9029,8.85832 10.51041,17.27283 20.46795,17.05333 7.38896,0.33857 15.04369,-2.60546 20.02924,-8.08107 2.2293,-2.38827 4.53981,-9.50981 2.09223,-10.28884 -2.6684,4.70598 -10.93638,5.77457 -8.98777,-1.41384 -0.29845,-9.63898 0.29768,-19.37824 -0.96107,-28.94781 -2.16107,-9.03842 -8.80249,-16.29837 -16.18396,-21.58718 6.98704,1.29293 12.00446,-5.03093 15.35026,-10.21367 4.45789,-8.89803 4.3721,-19.64813 1.89284,-29.10632 -2.72741,-9.55589 -11.27233,-16.75562 -21.13296,-17.94378 z m -24.29334,6.06261 c 3.85702,0.80682 7.07001,0.84712 8.7892,4.07872 2.06929,4.49693 0.86035,39.21718 -0.0908,40.26592 l -2.99198,3.29881 -5.3835,0.0531 c -0.57412,0.006 -0.32914,-32.93654 -0.3229,-47.69657 z"
         id="path3408"
         style="fill:#000000;fill-opacity:1;fill-rule:evenodd;stroke:none" />
      <path
         d="m 517.19133,328.45482 c -0.18535,4.62032 0.27628,9.31808 -1.15374,13.78943 -1.13542,4.81652 -1.76319,9.82054 -4.42425,14.12176 -3.51153,7.2787 -9.75831,13.32212 -17.1052,16.65311 -8.0803,2.27597 -16.71824,-0.19386 -23.66698,-4.52997 -7.23892,-4.48016 -14.47065,-10.20866 -17.9798,-18.1857 -3.52059,-9.43976 -6.81008,-19.11009 -7.52781,-29.2298 -1.63994,-12.11957 -2.16035,-24.7519 1.5692,-36.55178 0.87776,-5.54437 3.37265,-10.48207 6.04856,-15.32999 3.46319,-6.37412 6.71173,-13.43679 13.1595,-17.35191 3.36356,-3.22056 7.69913,-4.8787 11.94063,-6.52273 5.09535,-1.57392 10.19984,-1.29289 15.37432,-0.27953 5.75375,-1.44872 9.12097,7.81404 14.08982,4.91042 2.22373,-2.48485 3.98701,-7.51774 7.97581,-6.64469 2.67481,-0.75382 2.27323,1.4771 2.2063,3.38329 0.0966,13.71789 0.19262,27.43574 0.28913,41.1536 -4.50044,0.57574 -5.72958,-0.87939 -5.40768,-5.16616 -0.64151,-5.12237 -2.89601,-9.99141 -5.26485,-14.55945 -1.8568,-5.30696 -5.91731,-9.12687 -10.15468,-12.52406 -3.83625,-3.33966 -9.67561,-0.0961 -12.25389,3.50988 -5.41251,6.36479 -6.00562,15.19163 -5.68982,23.18845 0.60962,16.38877 -0.48699,32.77972 -0.0855,49.17177 -0.0588,9.0558 0.0362,18.67613 5.2012,26.53065 1.63048,4.98481 7.35943,6.31691 11.88934,4.74406 4.52233,-2.30676 9.0152,-5.49379 10.96533,-10.38273 2.63686,-5.33655 3.95414,-11.30369 5.06466,-17.13438 0.86092,-3.41271 -0.79161,-8.12428 4.10135,-6.76354 0.27967,0 0.55944,0 0.83911,0 z"
         id="path3418"
         style="fill:#000000;fill-opacity:1;fill-rule:evenodd;stroke:none" />
    </g>
    <g
       id="g3132">
      <path
         d="M 133.70443,54.60635 240.90611,303.02446 132.15334,549.01358 25.745019,299.80222 133.70443,54.60635 z"
         id="path3576"
         style="fill:#000000;fill-opacity:1;fill-rule:evenodd;stroke:none" />
      <path
         d="m 101.58856,129.32768 c -0.18019,0.2301 -3.188653,7.27122 -3.315939,7.3971 0.635803,0.87694 30.860949,41.78573 31.820289,42.66087 -0.0851,33.52076 -0.42512,67.48792 -0.51015,101.00868 -18.15264,-5.59033 -36.305319,-11.18068 -54.457966,-16.77101 5.526565,12.41351 11.05315,24.82705 16.579715,37.24057 -19.449273,3.59229 -38.898547,7.18454 -58.34782,10.77682 17.217381,8.69372 34.434772,17.38742 51.652164,26.08116 -3.741052,10.45796 -7.482133,20.91593 -11.223184,31.3739 18.535252,0.12754 37.070531,0.25507 55.605791,0.38261 -0.0636,21.06474 -0.12754,63.1061 -0.1912,63.1942 -0.18855,-0.0212 -38.049546,0.38558 -38.452171,-0.0636 -0.07858,0.45383 4.279727,8.45819 4.399992,9.24637 0.608275,0.10938 76.047649,0.12977 76.585499,0.31884 0.0477,-0.16753 3.76853,-8.74722 4.08116,-9.24638 -1.2139,-0.27974 -39.46191,-0.38516 -39.47246,-0.1912 -0.15018,-0.53743 0.12754,-42.17198 0.1912,-63.25796 5.99421,0.0424 11.98841,0.0851 17.98261,0.12753 -5.50532,9.39517 -11.01062,18.79034 -16.51594,28.18551 20.23575,0.14876 40.47149,0.29758 60.70724,0.44638 14.58164,-31.33141 40.12153,-94.72477 40.96231,-96.35374 -1.04824,-2.13157 -50.69442,-117.72176 -51.43154,-119.43375 -3.20967,17.17488 -6.28052,33.51696 -9.49019,50.69185 -13.75265,-5.39902 -27.50531,-10.79807 -41.25796,-16.1971 7.33333,24.23188 14.66667,48.46376 22,72.69564 -7.58841,-2.33815 -15.17682,-4.67634 -22.76522,-7.01449 0.0851,-34.56232 0.16998,-69.12463 0.25507,-103.68694 10.31458,-13.59464 20.67673,-27.1532 30.9913,-40.74783 l 0.51015,-0.76522 c -1.15629,-2.55719 -2.35095,-5.09498 -3.50724,-7.65216 -21.04348,-0.14876 -42.34203,-0.29758 -63.38551,-0.44638 z m 4.59131,7.14203 c 7.90724,0.0636 15.81449,0.12754 23.72174,0.1912 -0.0212,10.41546 -0.0424,20.83091 -0.0636,31.24637 C 121.95198,157.42806 114.06598,146.94884 106.18,136.4696 z m 30.86376,0.25507 c 7.5459,0.0424 15.09178,0.0851 22.63768,0.12754 -7.56714,10.0541 -15.1343,20.9372 -22.70145,30.9913 0.0212,-10.09662 0.0424,-21.02222 0.0636,-31.11884 z M 99.22914,451.99432 c 1.15758,3.3161 3.36598,6.62774 4.78261,8.9913 0.7208,0.19079 39.63552,0.21055 59.43187,0.12753 1.57041,-3.77945 3.61678,-8.68529 3.44348,-8.86376 -20.98705,-0.12345 -45.85445,-0.21386 -67.65796,-0.25507 z m 33.15942,17.91884 c -12.58752,0.0183 -25.14931,0.11651 -25.44348,0.0636 0.39933,0.7542 3.72536,8.9619 4.4,9.62899 0.86268,0.44547 42.58488,0.46912 43.55362,0.25507 -0.33427,-0.83107 4.06551,-8.68979 3.1884,-9.69275 -0.48351,-0.23388 -13.11102,-0.27283 -25.69854,-0.25508 z m 0.12754,18.36521 c -7.87046,0.0374 -15.68856,0.11692 -16.38841,0.12753 0.3983,0.77145 3.61748,8.77258 4.20869,9.50145 0.7066,0.38555 22.2267,-0.0226 24.35943,0.1912 0.95356,-1.83883 3.78804,-7.91769 4.52753,-9.75651 -0.91392,-0.0965 -8.83679,-0.10122 -16.70724,-0.0636 z m -0.51015,19.70434 c -3.33886,0.0259 -6.67832,0.0636 -7.33333,0.0636 0.46168,0.8469 6.5142,13.74039 7.7797,14.02898 0.82232,-0.18895 7.18774,-12.40562 7.0145,-13.90144 -0.76569,-0.18978 -4.12201,-0.21723 -7.46087,-0.19121 z"
         id="path4326"
         style="fill:#ffffff;fill-opacity:1;fill-rule:evenodd;stroke:none" />
      <path
         d="M 134.08703,5.4899523 C 90.55468,104.64936 47.022325,202.22206 3.4899499,301.38146 47.022325,400.56208 90.55468,501.32942 134.08703,600.51005 177.64065,501.32942 221.19427,402.14879 264.74789,302.96818 221.19427,203.80877 177.64065,104.64936 134.08703,5.4899523 z m -0.3826,52.2898497 C 171.41579,138.09403 202.53128,221.78642 238.52603,303.02446 205.64759,385.78759 169.51309,464.51059 132.9467,545.84014 96.642201,465.93184 62.946555,383.35616 27.331735,302.97567 60.699435,219.87348 97.372334,139.77917 133.70443,57.779802 z"
         id="path3416"
         style="fill:#ffffff;fill-opacity:1;fill-rule:evenodd;stroke:#000000;stroke-width:4.97990131;stroke-linecap:butt;stroke-linejoin:miter;stroke-miterlimit:4;stroke-opacity:1;stroke-dasharray:none" />
    </g>
  </g>
</svg>
