<?xml version="1.0" encoding="UTF-8" standalone="no"?>
<!-- Created with Inkscape (http://www.inkscape.org/) -->

<svg
   xmlns:dc="http://purl.org/dc/elements/1.1/"
   xmlns:cc="http://creativecommons.org/ns#"
   xmlns:rdf="http://www.w3.org/1999/02/22-rdf-syntax-ns#"
   xmlns:svg="http://www.w3.org/2000/svg"
   xmlns="http://www.w3.org/2000/svg"
   version="1.0"
   width="971.82629"
   height="599.992"
   id="svg2">
  <defs
     id="defs4" />
  <metadata
     id="metadata7">
    <rdf:RDF>
      <cc:Work
         rdf:about="">
        <dc:format>image/svg+xml</dc:format>
        <dc:type
           rdf:resource="http://purl.org/dc/dcmitype/StillImage" />
        <dc:title></dc:title>
        <dc:creator>
          <cc:Agent>
            <dc:title>Tyler Tidman VA3DGN</dc:title>
          </cc:Agent>
        </dc:creator>
      </cc:Work>
    </rdf:RDF>
  </metadata>
  <path
     d="M 131.30253,49.52682 239.39998,300.02067 129.73849,548.06525 22.44103,296.77151 131.30253,49.52682 z"
     id="path3576"
     style="fill:#e5001a;fill-opacity:1;fill-rule:evenodd;stroke:none" />
  <path
     d="m 98.91831,124.87251 c -0.18169,0.23201 -3.21529,7.33197 -3.34365,7.45891 0.64112,0.88426 31.11882,42.13487 32.08617,43.01733 -0.0858,33.80086 -0.42866,68.05184 -0.5144,101.8527 -18.30433,-5.63704 -36.60868,-11.27411 -54.91301,-16.91115 5.57274,12.51724 11.1455,25.03451 16.71824,37.55175 -19.61178,3.6223 -39.22357,7.24457 -58.83536,10.86686 17.36125,8.76637 34.72251,17.53272 52.08377,26.29909 -3.77232,10.54536 -7.54466,21.09071 -11.31697,31.63607 18.69013,0.1286 37.38029,0.2572 56.07042,0.3858 -0.0642,21.24075 -0.1286,63.63341 -0.1928,63.72224 -0.19012,-0.0214 -38.36748,0.38881 -38.77347,-0.0642 -0.0792,0.45764 4.31549,8.52888 4.43677,9.32364 0.61336,0.11029 76.68309,0.13086 77.22544,0.3215 0.0481,-0.16893 3.80001,-8.8203 4.11526,-9.32363 -1.22405,-0.28208 -39.79165,-0.38838 -39.80229,-0.1928 -0.15144,-0.54192 0.1286,-42.52437 0.1928,-63.78654 6.04429,0.0428 12.08858,0.0858 18.13287,0.1286 -5.55132,9.47368 -11.10263,18.94734 -16.65395,28.42102 20.40484,0.15 40.80966,0.30006 61.2145,0.4501 14.70348,-31.5932 40.45678,-95.51626 41.30459,-97.15885 -1.05701,-2.14938 -51.11802,-118.70543 -51.8613,-120.43172 -3.23649,17.31839 -6.33299,33.79703 -9.56948,51.11542 -13.86757,-5.44414 -27.73515,-10.8883 -41.60272,-16.33244 7.39461,24.43436 14.78922,48.86872 22.18383,73.30308 -7.65181,-2.35769 -15.30362,-4.71541 -22.95544,-7.0731 0.0858,-34.85112 0.1714,-69.70223 0.25721,-104.55334 10.40076,-13.70822 20.84949,-27.38009 31.25026,-41.08831 l 0.5144,-0.77161 c -1.16595,-2.57856 -2.37059,-5.13755 -3.53655,-7.71611 -21.21931,-0.15 -42.69583,-0.30007 -63.91514,-0.45011 z m 4.62967,7.2017 c 7.97332,0.0642 15.94663,0.1286 23.91995,0.1928 -0.0214,10.5025 -0.0428,21.00497 -0.0642,31.50747 -7.95187,-10.5668 -15.90377,-21.13358 -23.85565,-31.70037 z m 31.12166,0.25721 c 7.60895,0.0428 15.21788,0.0858 22.82683,0.1286 -7.63037,10.13811 -15.26076,21.11215 -22.89113,31.25026 0.0214,-10.18099 0.0428,-21.19787 0.0642,-31.37886 z M 96.53918,450.2353 c 1.16725,3.34381 3.3941,6.68312 4.82257,9.06643 0.72681,0.19239 39.96671,0.21231 59.92848,0.1286 1.58353,-3.81104 3.64699,-8.75787 3.47225,-8.93783 -21.16242,-0.12449 -46.23761,-0.21564 -68.2233,-0.2572 z m 33.43649,18.06856 c -12.6927,0.0185 -25.35945,0.11749 -25.65608,0.0642 0.40266,0.7605 3.75649,9.03678 4.43677,9.70944 0.86988,0.44921 42.9407,0.47305 43.91754,0.25721 -0.33706,-0.83801 4.09948,-8.7624 3.21505,-9.77375 -0.48755,-0.23582 -13.22058,-0.2751 -25.91328,-0.2572 z m 0.1286,18.51868 c -7.93622,0.0376 -15.81964,0.1179 -16.52534,0.1286 0.40163,0.77788 3.6477,8.84587 4.24386,9.58084 0.7125,0.38877 22.41241,-0.0228 24.56296,0.1928 0.96153,-1.85419 3.8197,-7.98385 4.56537,-9.83805 -0.92155,-0.0973 -8.91063,-0.10205 -16.84685,-0.0642 z m -0.51441,19.86899 c -3.36675,0.0261 -6.73413,0.0642 -7.39461,0.0642 0.46554,0.85397 6.56864,13.85519 7.84472,14.1462 0.82918,-0.19053 7.2478,-12.50928 7.0731,-14.0176 -0.77208,-0.19136 -4.15645,-0.21904 -7.52321,-0.1928 z"
     id="path4326"
     style="fill:#ffffff;fill-opacity:1;fill-rule:evenodd;stroke:none" />
  <path
     d="M 131.68834,0 C 87.79223,99.98798 43.89613,198.37598 0,298.36395 43.89613,398.3733 87.79223,499.98265 131.68834,599.99202 175.60588,499.98265 219.52343,399.97327 263.44098,299.96392 219.52343,199.97595 175.60588,99.98798 131.68834,0 z m -0.38581,52.72678 C 169.329,133.71211 200.70449,218.10382 237.00002,300.02067 203.84684,383.47536 167.4104,462.85616 130.53847,544.86528 93.93062,464.28928 59.95342,381.02361 24.041,299.97147 57.68752,216.17489 94.66686,135.41132 131.30253,52.72678 z"
     id="path3416"
     style="fill:#000000;fill-opacity:1;fill-rule:evenodd;stroke:none" />
  <path
     d="m 276.78726,232.09711 c 3.16403,3e-5 5.43454,-0.65915 6.81153,-1.97754 1.40621,-1.31832 2.10933,-3.48629 2.10937,-6.50391 -4e-5,-2.98823 -0.70316,-5.1269 -2.10937,-6.41601 -1.37699,-1.28901 -3.6475,-1.93354 -6.81153,-1.9336 l -6.41601,0 0,16.83106 6.41601,0 m -6.41601,11.68945 0,24.8291 -15.24903,0 0,-65.61035 23.24707,0 c 7.79293,7e-5 13.49117,1.45026 17.09473,4.35059 3.63276,2.90044 5.44917,7.4854 5.44922,13.75488 -5e-5,4.33598 -0.93755,7.89555 -2.8125,10.67871 -1.87505,2.78324 -4.71684,4.83402 -8.52539,6.15234 2.08003,0.52738 3.94038,1.72855 5.58105,3.60352 1.66988,1.84573 3.3398,4.65822 5.00977,8.4375 l 8.26172,18.63281 -16.21582,0 -7.16309,-16.30371 c -1.46488,-3.28123 -2.94437,-5.52244 -4.43848,-6.72363 -1.49417,-1.20115 -3.4717,-1.80174 -5.93261,-1.80176 l -4.30664,0"
     id="path3166"
     style="font-size:90px;font-style:normal;font-variant:normal;font-weight:bold;font-stretch:semi-condensed;text-align:start;line-height:100%;writing-mode:lr-tb;text-anchor:start;fill:#000000;fill-opacity:1;stroke:none;font-family:DejaVu Sans;-inkscape-font-specification:DejaVu Sans Bold Semi-Condensed" />
  <path
     d="m 336.77261,246.46722 c -2.959,3e-5 -5.18556,0.55667 -6.67968,1.66993 -1.49416,1.1133 -2.24123,2.75392 -2.24121,4.92187 -2e-5,1.9922 0.60056,3.55958 1.80175,4.70215 1.20115,1.11329 2.87107,1.66993 5.00977,1.66992 2.66599,1e-5 4.9072,-1.05468 6.72363,-3.16406 1.81637,-2.13866 2.72458,-4.80467 2.72461,-7.99805 l 0,-1.80176 -7.33887,0 m 21.6211,-5.93261 0,28.08105 -14.28223,0 0,-7.29492 c -1.90433,2.98829 -4.043,5.1709 -6.41601,6.54785 -2.37308,1.34766 -5.25882,2.02148 -8.65723,2.02149 -4.59963,-1e-5 -8.33497,-1.4795 -11.20606,-4.43848 -2.8418,-2.98828 -4.26269,-6.85546 -4.26269,-11.60156 0,-5.77147 1.7871,-10.00486 5.36133,-12.7002 3.5742,-2.69528 9.18455,-4.04294 16.83105,-4.04297 l 8.34961,0 0,-1.23047 c -3e-5,-2.4902 -0.89359,-4.3066 -2.68066,-5.44921 -1.75785,-1.17184 -4.4971,-1.75778 -8.21778,-1.75782 -3.04689,4e-5 -5.87404,0.33696 -8.48144,1.01074 -2.60744,0.67387 -5.03907,1.68461 -7.29492,3.03223 l 0,-11.99707 c 3.04686,-0.82026 6.09373,-1.4355 9.14062,-1.8457 3.07615,-0.43941 6.13767,-0.65913 9.18457,-0.65918 7.99801,5e-5 13.76949,1.75786 17.31445,5.27344 3.54488,3.48637 5.31734,9.16995 5.31739,17.05078"
     id="path3168"
     style="font-size:90px;font-style:normal;font-variant:normal;font-weight:bold;font-stretch:semi-condensed;text-align:start;line-height:100%;writing-mode:lr-tb;text-anchor:start;fill:#000000;fill-opacity:1;stroke:none;font-family:DejaVu Sans;-inkscape-font-specification:DejaVu Sans Bold Semi-Condensed" />
  <path
     d="m 401.72379,226.60394 0,-26.36718 14.23828,0 0,68.3789 -14.23828,0 0,-7.11914 c -1.96293,2.9004 -4.11625,5.02442 -6.45997,6.37207 -2.34377,1.34766 -5.06838,2.02148 -8.17382,2.02149 -5.44924,-1e-5 -9.93166,-2.40235 -13.44727,-7.20704 -3.48633,-4.83397 -5.2295,-11.0449 -5.22949,-18.63281 -10e-6,-7.58786 1.74316,-13.78414 5.22949,-18.58887 3.51561,-4.83393 7.99803,-7.25092 13.44727,-7.25097 3.07614,5e-5 5.7861,0.68852 8.12988,2.06543 2.37301,1.3477 4.54098,3.45707 6.50391,6.32812 m -9.36036,31.86035 c 3.04685,10e-6 5.3613,-1.23045 6.94336,-3.6914 1.6113,-2.46092 2.41696,-6.03514 2.417,-10.72266 -4e-5,-4.68747 -0.8057,-8.26168 -2.417,-10.72265 -1.58206,-2.4609 -3.89651,-3.69137 -6.94336,-3.69141 -2.9883,4e-5 -5.2881,1.23051 -6.89941,3.69141 -1.58205,2.46097 -2.37307,6.03518 -2.37305,10.72265 -2e-5,4.68752 0.791,8.26174 2.37305,10.72266 1.61131,2.46095 3.91111,3.69141 6.89941,3.6914"
     id="path3170"
     style="font-size:90px;font-style:normal;font-variant:normal;font-weight:bold;font-stretch:semi-condensed;text-align:start;line-height:100%;writing-mode:lr-tb;text-anchor:start;fill:#000000;fill-opacity:1;stroke:none;font-family:DejaVu Sans;-inkscape-font-specification:DejaVu Sans Bold Semi-Condensed" />
  <path
     d="m 429.58511,219.39691 14.15039,0 0,49.21875 -14.15039,0 0,-49.21875 m 0,-19.16015 14.15039,0 0,12.83203 -14.15039,0 0,-12.83203"
     id="path3172"
     style="font-size:90px;font-style:normal;font-variant:normal;font-weight:bold;font-stretch:semi-condensed;text-align:start;line-height:100%;writing-mode:lr-tb;text-anchor:start;fill:#000000;fill-opacity:1;stroke:none;font-family:DejaVu Sans;-inkscape-font-specification:DejaVu Sans Bold Semi-Condensed" />
  <path
     d="m 478.40836,229.46039 c -3.13479,4e-5 -5.52249,1.2598 -7.16309,3.7793 -1.64064,2.49026 -2.46096,6.09377 -2.46094,10.81054 -2e-5,4.71682 0.8203,8.33498 2.46094,10.85449 1.6406,2.49025 4.0283,3.73537 7.16309,3.73536 3.10543,10e-6 5.46383,-1.24511 7.07519,-3.73536 1.64059,-2.51951 2.4609,-6.13767 2.46094,-10.85449 -4e-5,-4.71677 -0.82035,-8.32028 -2.46094,-10.81054 -1.61136,-2.5195 -3.96976,-3.77926 -7.07519,-3.7793 m 0,-11.25 c 7.64644,5e-5 13.60835,2.2852 17.88574,6.85547 4.27729,4.57035 6.41596,10.89847 6.41601,18.98437 -5e-5,8.08596 -2.13872,14.41407 -6.41601,18.98438 -4.27739,4.57031 -10.2393,6.85546 -17.88574,6.85547 -7.61721,-1e-5 -13.59377,-2.28516 -17.92969,-6.85547 -4.30665,-4.57031 -6.45997,-10.89842 -6.45996,-18.98438 -10e-6,-8.0859 2.15331,-14.41402 6.45996,-18.98437 4.33592,-4.57027 10.31248,-6.85542 17.92969,-6.85547"
     id="path3174"
     style="font-size:90px;font-style:normal;font-variant:normal;font-weight:bold;font-stretch:semi-condensed;text-align:start;line-height:100%;writing-mode:lr-tb;text-anchor:start;fill:#000000;fill-opacity:1;stroke:none;font-family:DejaVu Sans;-inkscape-font-specification:DejaVu Sans Bold Semi-Condensed" />
  <path
     d="m 577.68082,256.66254 -23.81836,0 -3.7793,11.95312 -15.29297,0 21.88477,-65.61035 18.14941,0 21.88477,65.61035 -15.33692,0 -3.6914,-11.95312 m -20.03907,-12.17285 16.17188,0 -8.04199,-26.10352 -8.12989,26.10352"
     id="path3176"
     style="font-size:90px;font-style:normal;font-variant:normal;font-weight:bold;font-stretch:semi-condensed;text-align:start;line-height:100%;writing-mode:lr-tb;text-anchor:start;fill:#000000;fill-opacity:1;stroke:none;font-family:DejaVu Sans;-inkscape-font-specification:DejaVu Sans Bold Semi-Condensed" />
  <path
     d="m 645.00504,227.57074 c 1.78706,-3.04683 3.91108,-5.36128 6.37207,-6.94336 2.46088,-1.61128 5.17083,-2.41694 8.12988,-2.41699 5.09759,5e-5 8.97942,1.74321 11.64551,5.22949 2.66594,3.48637 3.99894,8.55472 3.99902,15.20508 l 0,29.9707 -14.23828,0 0,-25.66406 c 0.0292,-0.38083 0.0439,-0.77634 0.0439,-1.18652 0.0292,-0.41013 0.0439,-0.99607 0.0439,-1.75782 -6e-5,-3.48629 -0.46881,-6.00582 -1.40625,-7.55859 -0.90827,-1.58199 -2.4024,-2.37301 -4.48242,-2.37305 -2.66607,4e-5 -4.7315,1.23051 -6.19629,3.69141 -1.4649,2.46097 -2.22661,6.02054 -2.28516,10.67871 l 0,24.16992 -14.23828,0 0,-25.66406 c -3e-5,-5.44919 -0.42484,-8.95016 -1.27441,-10.50293 -0.84965,-1.58199 -2.35843,-2.37301 -4.52637,-2.37305 -2.69534,4e-5 -4.79006,1.24516 -6.28418,3.73535 -1.46487,2.46097 -2.19729,5.99124 -2.19727,10.59082 l 0,24.21387 -14.23828,0 0,-49.21875 14.23828,0 0,7.20703 c 1.7285,-2.78316 3.72068,-4.87788 5.97657,-6.28418 2.25583,-1.4062 4.74606,-2.10932 7.4707,-2.10937 3.04684,5e-5 5.74215,0.82036 8.08594,2.46094 2.373,1.64067 4.16011,3.94047 5.36133,6.89941"
     id="path3178"
     style="font-size:90px;font-style:normal;font-variant:normal;font-weight:bold;font-stretch:semi-condensed;text-align:start;line-height:100%;writing-mode:lr-tb;text-anchor:start;fill:#000000;fill-opacity:1;stroke:none;font-family:DejaVu Sans;-inkscape-font-specification:DejaVu Sans Bold Semi-Condensed" />
  <path
     d="m 708.19839,246.46722 c -2.959,3e-5 -5.18556,0.55667 -6.67968,1.66993 -1.49416,1.1133 -2.24123,2.75392 -2.24121,4.92187 -2e-5,1.9922 0.60056,3.55958 1.80175,4.70215 1.20116,1.11329 2.87108,1.66993 5.00977,1.66992 2.66599,1e-5 4.9072,-1.05468 6.72363,-3.16406 1.81638,-2.13866 2.72458,-4.80467 2.72461,-7.99805 l 0,-1.80176 -7.33887,0 m 21.6211,-5.93261 0,28.08105 -14.28223,0 0,-7.29492 c -1.90433,2.98829 -4.043,5.1709 -6.41601,6.54785 -2.37308,1.34766 -5.25882,2.02148 -8.65723,2.02149 -4.59962,-1e-5 -8.33497,-1.4795 -11.20605,-4.43848 -2.84181,-2.98828 -4.2627,-6.85546 -4.2627,-11.60156 0,-5.77147 1.7871,-10.00486 5.36133,-12.7002 3.5742,-2.69528 9.18455,-4.04294 16.83105,-4.04297 l 8.34961,0 0,-1.23047 c -3e-5,-2.4902 -0.89359,-4.3066 -2.68066,-5.44921 -1.75784,-1.17184 -4.4971,-1.75778 -8.21778,-1.75782 -3.04689,4e-5 -5.87404,0.33696 -8.48144,1.01074 -2.60743,0.67387 -5.03907,1.68461 -7.29492,3.03223 l 0,-11.99707 c 3.04686,-0.82026 6.09373,-1.4355 9.14062,-1.8457 3.07615,-0.43941 6.13767,-0.65913 9.18457,-0.65918 7.99802,5e-5 13.76949,1.75786 17.31446,5.27344 3.54487,3.48637 5.31733,9.16995 5.31738,17.05078"
     id="path3180"
     style="font-size:90px;font-style:normal;font-variant:normal;font-weight:bold;font-stretch:semi-condensed;text-align:start;line-height:100%;writing-mode:lr-tb;text-anchor:start;fill:#000000;fill-opacity:1;stroke:none;font-family:DejaVu Sans;-inkscape-font-specification:DejaVu Sans Bold Semi-Condensed" />
  <path
     d="m 758.47183,205.4223 0,13.97461 14.58985,0 0,11.25 -14.58985,0 0,20.87403 c -2e-5,2.28517 0.39549,3.8379 1.18653,4.6582 0.82028,0.79103 2.44626,1.18653 4.87793,1.18652 l 7.29492,0 0,11.25 -12.12891,0 c -5.59572,0 -9.56544,-1.28906 -11.90918,-3.86719 -2.34376,-2.60741 -3.51563,-7.01659 -3.51562,-13.22753 l 0,-20.87403 -7.03125,0 0,-11.25 7.03125,0 0,-13.97461 14.19433,0"
     id="path3182"
     style="font-size:90px;font-style:normal;font-variant:normal;font-weight:bold;font-stretch:semi-condensed;text-align:start;line-height:100%;writing-mode:lr-tb;text-anchor:start;fill:#000000;fill-opacity:1;stroke:none;font-family:DejaVu Sans;-inkscape-font-specification:DejaVu Sans Bold Semi-Condensed" />
  <path
     d="m 825.88394,243.87445 0,4.48242 -33.09082,0 c 0.32225,3.69143 1.50877,6.45998 3.55957,8.30567 2.08006,1.84571 4.9658,2.76856 8.65723,2.76855 2.98825,1e-5 6.03512,-0.48339 9.14062,-1.45019 3.13473,-0.99609 6.34273,-2.49023 9.62403,-4.48243 l 0,12.12891 c -3.33989,1.40625 -6.69438,2.46094 -10.06348,3.16406 -3.33988,0.73242 -6.67972,1.09863 -10.01953,1.09864 -8.02737,-1e-5 -14.26759,-2.25586 -18.7207,-6.76758 -4.42384,-4.54101 -6.63575,-10.89842 -6.63575,-19.07227 0,-8.02731 2.18262,-14.34078 6.54786,-18.94043 4.36522,-4.59956 10.37107,-6.89936 18.01757,-6.89941 6.97262,5e-5 12.53903,2.32915 16.69922,6.9873 4.18941,4.65824 6.28413,10.88382 6.28418,18.67676 m -14.5459,-5.22949 c -3e-5,-2.98825 -0.79105,-5.39059 -2.37304,-7.20703 -1.55277,-1.84567 -3.60355,-2.76852 -6.15235,-2.76856 -2.72463,4e-5 -4.95119,0.8643 -6.67968,2.59278 -1.69924,1.69925 -2.76858,4.16019 -3.20801,7.38281 l 18.41308,0"
     id="path3184"
     style="font-size:90px;font-style:normal;font-variant:normal;font-weight:bold;font-stretch:semi-condensed;text-align:start;line-height:100%;writing-mode:lr-tb;text-anchor:start;fill:#000000;fill-opacity:1;stroke:none;font-family:DejaVu Sans;-inkscape-font-specification:DejaVu Sans Bold Semi-Condensed" />
  <path
     d="m 836.21109,249.45551 0,-30.0586 14.23828,0 0,4.92188 c -2e-5,2.66605 -0.0147,6.02054 -0.0439,10.06347 -0.0293,4.01371 -0.044,6.69437 -0.0439,8.042 -2e-5,3.9551 0.0879,6.81154 0.26367,8.56933 0.20506,1.72853 0.52733,2.9883 0.9668,3.7793 0.58591,1.0254 1.34763,1.81642 2.28516,2.37305 0.93747,0.55665 2.00681,0.83497 3.208,0.83496 2.95896,10e-6 5.27341,-1.25976 6.94336,-3.7793 1.69919,-2.51952 2.54879,-6.02049 2.54883,-10.50293 l 0,-24.30176 14.15039,0 0,49.21875 -14.15039,0 0,-7.11914 c -2.13871,2.8711 -4.40921,4.99512 -6.81152,6.37207 -2.37308,1.34766 -4.99514,2.02148 -7.86621,2.02149 -5.09768,-1e-5 -8.99416,-1.74317 -11.68946,-5.2295 -2.66602,-3.48632 -3.99903,-8.55467 -3.99902,-15.20507"
     id="path3186"
     style="font-size:90px;font-style:normal;font-variant:normal;font-weight:bold;font-stretch:semi-condensed;text-align:start;line-height:100%;writing-mode:lr-tb;text-anchor:start;fill:#000000;fill-opacity:1;stroke:none;font-family:DejaVu Sans;-inkscape-font-specification:DejaVu Sans Bold Semi-Condensed" />
  <path
     d="m 927.26578,232.80023 c -1.25981,-0.64449 -2.50492,-1.11324 -3.73535,-1.40625 -1.20121,-0.32223 -2.43168,-0.48336 -3.69141,-0.4834 -3.63284,4e-5 -6.43069,1.30375 -8.39355,3.91114 -1.96292,2.57815 -2.94436,6.2842 -2.94434,11.11816 l 0,22.67578 -14.15039,0 0,-49.21875 14.15039,0 0,8.08594 c 1.81638,-3.22261 3.89646,-5.56636 6.24023,-7.03125 2.37302,-1.49409 5.21481,-2.24116 8.52539,-2.24121 0.46872,5e-5 0.98141,0.0294 1.53809,0.0879 0.5566,0.0293 1.36227,0.11724 2.41699,0.26367 l 0.0439,14.23828"
     id="path3188"
     style="font-size:90px;font-style:normal;font-variant:normal;font-weight:bold;font-stretch:semi-condensed;text-align:start;line-height:100%;writing-mode:lr-tb;text-anchor:start;fill:#000000;fill-opacity:1;stroke:none;font-family:DejaVu Sans;-inkscape-font-specification:DejaVu Sans Bold Semi-Condensed" />
  <path
     d="m 968.83804,220.935 0,11.95312 c -3.01761,-1.40621 -5.9473,-2.4609 -8.78906,-3.16406 -2.81253,-0.70309 -5.46389,-1.05465 -7.9541,-1.05469 -2.69534,4e-5 -4.70217,0.3809 -6.02051,1.14258 -1.28908,0.73246 -1.93361,1.87504 -1.93359,3.42774 -2e-5,1.25979 0.48338,2.22659 1.45019,2.90039 0.99608,0.67386 2.78319,1.1719 5.36133,1.49414 l 2.46094,0.3955 c 7.26559,1.02542 12.14352,2.70999 14.63379,5.05372 2.51949,2.34377 3.77925,6.02052 3.77929,11.03027 -4e-5,5.24415 -1.7432,9.18457 -5.22949,11.82129 -3.48636,2.63672 -8.68655,3.95507 -15.60058,3.95508 -2.92971,-1e-5 -5.96194,-0.26368 -9.09668,-0.79102 -3.10548,-0.49805 -6.29884,-1.25976 -9.58008,-2.28516 l 0,-11.95312 c 2.81249,1.52345 5.69823,2.66603 8.65723,3.42773 2.98826,0.76173 6.00583,1.14259 9.05273,1.14258 2.75388,1e-5 4.83396,-0.42479 6.24023,-1.27441 1.40622,-0.8496 2.10935,-2.10937 2.10938,-3.7793 -3e-5,-1.40623 -0.48343,-2.44627 -1.4502,-3.12012 -0.96682,-0.7031 -2.88577,-1.2451 -5.75683,-1.62597 l -2.50489,-0.35157 c -6.29884,-0.87888 -10.72266,-2.50486 -13.27148,-4.87793 -2.51954,-2.37302 -3.7793,-5.97653 -3.7793,-10.81054 0,-5.21481 1.61133,-9.08199 4.83399,-11.60156 3.22264,-2.51949 8.15916,-3.77925 14.80957,-3.7793 2.60739,5e-5 5.34665,0.21977 8.21777,0.65918 2.87106,0.4395 5.99117,1.12798 9.36035,2.06543"
     id="path3190"
     style="font-size:90px;font-style:normal;font-variant:normal;font-weight:bold;font-stretch:semi-condensed;text-align:start;line-height:100%;writing-mode:lr-tb;text-anchor:start;fill:#000000;fill-opacity:1;stroke:none;font-family:DejaVu Sans;-inkscape-font-specification:DejaVu Sans Bold Semi-Condensed" />
  <path
     d="m 524.55911,344.50903 c -2.81255,1.61133 -5.74223,2.82715 -8.78906,3.64746 -3.01762,0.82032 -6.16703,1.23047 -9.44824,1.23047 -9.84378,0 -17.63674,-3.04687 -23.37891,-9.14062 -5.74219,-6.12303 -8.61328,-14.41404 -8.61328,-24.87305 0,-10.48824 2.87109,-18.77924 8.61328,-24.87305 5.74217,-6.12298 13.53513,-9.1845 23.37891,-9.18457 3.28121,7e-5 6.43062,0.41023 9.44824,1.23047 3.04683,0.82038 5.97651,2.0362 8.78906,3.64746 l 0,13.57911 c -2.84185,-2.13863 -5.63969,-3.70601 -8.39355,-4.70215 -2.72465,-0.99604 -5.59575,-1.49409 -8.61328,-1.49414 -5.44925,5e-5 -9.72659,1.93364 -12.83203,5.80078 -3.10549,3.86723 -4.65823,9.19926 -4.65821,15.99609 -2e-5,6.76761 1.55272,12.08498 4.65821,15.95215 3.10544,3.8672 7.38278,5.80079 12.83203,5.80078 3.01753,1e-5 5.88863,-0.49803 8.61328,-1.49414 2.75386,-0.99608 5.5517,-2.56346 8.39355,-4.70215 l 0,13.5791"
     id="path3153"
     style="font-size:90px;font-style:normal;font-variant:normal;font-weight:bold;font-stretch:semi-condensed;text-align:start;line-height:100%;writing-mode:lr-tb;text-anchor:start;fill:#000000;fill-opacity:1;stroke:none;font-family:DejaVu Sans;-inkscape-font-specification:DejaVu Sans Bold Semi-Condensed" />
  <path
     d="m 556.37552,325.96411 c -2.95901,2e-5 -5.18557,0.55666 -6.67969,1.66992 -1.49416,1.1133 -2.24123,2.75393 -2.24121,4.92188 -2e-5,1.9922 0.60057,3.55958 1.80176,4.70215 1.20115,1.11329 2.87107,1.66993 5.00976,1.66992 2.66599,1e-5 4.9072,-1.05468 6.72364,-3.16406 1.81637,-2.13866 2.72457,-4.80467 2.72461,-7.99805 l 0,-1.80176 -7.33887,0 m 21.62109,-5.93262 0,28.08106 -14.28222,0 0,-7.29492 c -1.90433,2.98828 -4.043,5.1709 -6.41602,6.54785 -2.37307,1.34765 -5.25881,2.02148 -8.65723,2.02148 -4.59962,0 -8.33497,-1.47949 -11.20605,-4.43847 -2.8418,-2.98828 -4.2627,-6.85546 -4.2627,-11.60157 0,-5.77146 1.78711,-10.00485 5.36133,-12.70019 3.57421,-2.69528 9.18455,-4.04294 16.83106,-4.04297 l 8.34961,0 0,-1.23047 c -4e-5,-2.4902 -0.89359,-4.3066 -2.68067,-5.44922 -1.75784,-1.17183 -4.4971,-1.75777 -8.21777,-1.75781 -3.0469,4e-5 -5.87404,0.33695 -8.48145,1.01074 -2.60743,0.67387 -5.03907,1.68461 -7.29492,3.03223 l 0,-11.99707 c 3.04687,-0.82027 6.09374,-1.4355 9.14063,-1.8457 3.07615,-0.43941 6.13767,-0.65913 9.18457,-0.65918 7.99801,5e-5 13.76949,1.75786 17.31445,5.27343 3.54488,3.48637 5.31733,9.16996 5.31738,17.05078"
     id="path3155"
     style="font-size:90px;font-style:normal;font-variant:normal;font-weight:bold;font-stretch:semi-condensed;text-align:start;line-height:100%;writing-mode:lr-tb;text-anchor:start;fill:#000000;fill-opacity:1;stroke:none;font-family:DejaVu Sans;-inkscape-font-specification:DejaVu Sans Bold Semi-Condensed" />
  <path
     d="m 635.69681,318.14185 0,29.9707 -14.23828,0 0,-4.87793 0,-18.06152 c -4e-5,-4.24802 -0.0879,-7.17771 -0.26368,-8.78907 -0.17581,-1.61129 -0.46878,-2.79781 -0.8789,-3.55957 -0.55668,-1.02535 -1.3184,-1.81637 -2.28516,-2.37304 -0.93753,-0.5859 -2.00687,-0.87887 -3.20801,-0.87891 -2.95901,4e-5 -5.28811,1.27445 -6.9873,3.82324 -1.66994,2.51957 -2.5049,6.02054 -2.50488,10.50293 l 0,24.21387 -14.15039,0 0,-49.21875 14.15039,0 0,7.20703 c 2.13865,-2.87105 4.40915,-4.98042 6.81152,-6.32812 2.40231,-1.37691 5.05368,-2.06538 7.9541,-2.06543 5.09762,5e-5 8.9648,1.74321 11.60156,5.22949 2.66597,3.48637 3.99898,8.55472 3.99903,15.20508"
     id="path3157"
     style="font-size:90px;font-style:normal;font-variant:normal;font-weight:bold;font-stretch:semi-condensed;text-align:start;line-height:100%;writing-mode:lr-tb;text-anchor:start;fill:#000000;fill-opacity:1;stroke:none;font-family:DejaVu Sans;-inkscape-font-specification:DejaVu Sans Bold Semi-Condensed" />
  <path
     d="m 668.69974,325.96411 c -2.95901,2e-5 -5.18557,0.55666 -6.67969,1.66992 -1.49416,1.1133 -2.24123,2.75393 -2.24121,4.92188 -2e-5,1.9922 0.60057,3.55958 1.80176,4.70215 1.20115,1.11329 2.87107,1.66993 5.00976,1.66992 2.66599,1e-5 4.9072,-1.05468 6.72364,-3.16406 1.81637,-2.13866 2.72457,-4.80467 2.7246,-7.99805 l 0,-1.80176 -7.33886,0 m 21.62109,-5.93262 0,28.08106 -14.28223,0 0,-7.29492 c -1.90432,2.98828 -4.04299,5.1709 -6.41601,6.54785 -2.37307,1.34765 -5.25881,2.02148 -8.65723,2.02148 -4.59962,0 -8.33497,-1.47949 -11.20605,-4.43847 -2.8418,-2.98828 -4.2627,-6.85546 -4.2627,-11.60157 0,-5.77146 1.78711,-10.00485 5.36133,-12.70019 3.57421,-2.69528 9.18455,-4.04294 16.83106,-4.04297 l 8.3496,0 0,-1.23047 c -3e-5,-2.4902 -0.89358,-4.3066 -2.68066,-5.44922 -1.75784,-1.17183 -4.4971,-1.75777 -8.21777,-1.75781 -3.0469,4e-5 -5.87404,0.33695 -8.48145,1.01074 -2.60743,0.67387 -5.03907,1.68461 -7.29492,3.03223 l 0,-11.99707 c 3.04686,-0.82027 6.09374,-1.4355 9.14063,-1.8457 3.07615,-0.43941 6.13767,-0.65913 9.18457,-0.65918 7.99801,5e-5 13.76949,1.75786 17.31445,5.27343 3.54487,3.48637 5.31733,9.16996 5.31738,17.05078"
     id="path3159"
     style="font-size:90px;font-style:normal;font-variant:normal;font-weight:bold;font-stretch:semi-condensed;text-align:start;line-height:100%;writing-mode:lr-tb;text-anchor:start;fill:#000000;fill-opacity:1;stroke:none;font-family:DejaVu Sans;-inkscape-font-specification:DejaVu Sans Bold Semi-Condensed" />
  <path
     d="m 733.65091,306.10083 0,-26.36719 14.23828,0 0,68.37891 -14.23828,0 0,-7.11914 c -1.96293,2.90039 -4.11624,5.02441 -6.45996,6.37207 -2.34378,1.34765 -5.06839,2.02148 -8.17383,2.02148 -5.44924,0 -9.93165,-2.40234 -13.44727,-7.20703 -3.48633,-4.83397 -5.22949,-11.0449 -5.22949,-18.63281 0,-7.58786 1.74316,-13.78414 5.22949,-18.58887 3.51562,-4.83393 7.99803,-7.25092 13.44727,-7.25097 3.07615,5e-5 5.78611,0.68852 8.12988,2.06543 2.37302,1.3477 4.54098,3.45707 6.50391,6.32812 m -9.36035,31.86035 c 3.04684,10e-6 5.36129,-1.23046 6.94336,-3.6914 1.61129,-2.46093 2.41695,-6.03514 2.41699,-10.72266 -4e-5,-4.68747 -0.8057,-8.26169 -2.41699,-10.72266 -1.58207,-2.4609 -3.89652,-3.69136 -6.94336,-3.6914 -2.98831,4e-5 -5.28811,1.2305 -6.89942,3.6914 -1.58205,2.46097 -2.37306,6.03519 -2.37304,10.72266 -2e-5,4.68752 0.79099,8.26173 2.37304,10.72266 1.61131,2.46094 3.91111,3.69141 6.89942,3.6914"
     id="path3161"
     style="font-size:90px;font-style:normal;font-variant:normal;font-weight:bold;font-stretch:semi-condensed;text-align:start;line-height:100%;writing-mode:lr-tb;text-anchor:start;fill:#000000;fill-opacity:1;stroke:none;font-family:DejaVu Sans;-inkscape-font-specification:DejaVu Sans Bold Semi-Condensed" />
  <path
     d="m 781.37552,325.96411 c -2.95901,2e-5 -5.18557,0.55666 -6.67969,1.66992 -1.49416,1.1133 -2.24123,2.75393 -2.24121,4.92188 -2e-5,1.9922 0.60057,3.55958 1.80176,4.70215 1.20115,1.11329 2.87107,1.66993 5.00976,1.66992 2.66599,1e-5 4.9072,-1.05468 6.72364,-3.16406 1.81637,-2.13866 2.72457,-4.80467 2.72461,-7.99805 l 0,-1.80176 -7.33887,0 m 21.62109,-5.93262 0,28.08106 -14.28222,0 0,-7.29492 c -1.90433,2.98828 -4.043,5.1709 -6.41602,6.54785 -2.37307,1.34765 -5.25881,2.02148 -8.65723,2.02148 -4.59962,0 -8.33497,-1.47949 -11.20605,-4.43847 -2.8418,-2.98828 -4.2627,-6.85546 -4.2627,-11.60157 0,-5.77146 1.78711,-10.00485 5.36133,-12.70019 3.57421,-2.69528 9.18455,-4.04294 16.83106,-4.04297 l 8.34961,0 0,-1.23047 c -4e-5,-2.4902 -0.89359,-4.3066 -2.68067,-5.44922 -1.75784,-1.17183 -4.4971,-1.75777 -8.21777,-1.75781 -3.0469,4e-5 -5.87404,0.33695 -8.48145,1.01074 -2.60743,0.67387 -5.03907,1.68461 -7.29492,3.03223 l 0,-11.99707 c 3.04687,-0.82027 6.09374,-1.4355 9.14063,-1.8457 3.07615,-0.43941 6.13767,-0.65913 9.18457,-0.65918 7.99801,5e-5 13.76949,1.75786 17.31445,5.27343 3.54488,3.48637 5.31733,9.16996 5.31738,17.05078"
     id="path3163"
     style="font-size:90px;font-style:normal;font-variant:normal;font-weight:bold;font-stretch:semi-condensed;text-align:start;line-height:100%;writing-mode:lr-tb;text-anchor:start;fill:#000000;fill-opacity:1;stroke:none;font-family:DejaVu Sans;-inkscape-font-specification:DejaVu Sans Bold Semi-Condensed" />
  <path
     d="m 432.33517,291.71527 c -1.56739,2e-5 -2.76124,0.6299 -3.58154,1.88965 -0.82032,1.24513 -1.23048,3.04689 -1.23047,5.40527 -1e-5,2.35841 0.41015,4.16749 1.23047,5.42725 0.8203,1.24512 2.01415,1.86768 3.58154,1.86767 1.55272,10e-6 2.73192,-0.62255 3.5376,-1.86767 0.8203,-1.25976 1.23045,-3.06884 1.23047,-5.42725 -2e-5,-2.35838 -0.41017,-4.16014 -1.23047,-5.40527 -0.80568,-1.25975 -1.98488,-1.88963 -3.5376,-1.88965 m 0,-5.625 c 3.82323,3e-5 6.80418,1.1426 8.94288,3.42774 2.13864,2.28517 3.20798,5.44923 3.208,9.49218 -2e-5,4.04298 -1.06936,7.20704 -3.208,9.49219 -2.1387,2.28516 -5.11965,3.42773 -8.94288,3.42773 -3.8086,0 -6.79688,-1.14257 -8.96484,-3.42773 -2.15332,-2.28515 -3.22998,-5.44921 -3.22998,-9.49219 0,-4.04295 1.07666,-7.20701 3.22998,-9.49218 2.16796,-2.28514 5.15624,-3.42771 8.96484,-3.42774"
     id="path3148"
     style="font-size:45px;font-style:normal;font-variant:normal;font-weight:bold;font-stretch:semi-condensed;text-align:start;line-height:100%;writing-mode:lr-tb;text-anchor:start;fill:#000000;fill-opacity:1;stroke:none;font-family:DejaVu Sans;-inkscape-font-specification:DejaVu Sans Bold Semi-Condensed" />
  <path
     d="m 464.23947,277.10345 0,5.16358 -3.91113,0 c -0.99611,3e-5 -1.69191,0.20511 -2.0874,0.61523 -0.39552,0.39554 -0.59328,1.09134 -0.59327,2.08741 l 0,1.71386 6.04249,0 0,5.625 -6.04249,0 0,18.98438 -7.09716,0 0,-18.98438 -3.51563,0 0,-5.625 3.51563,0 0,-1.71386 c -10e-6,-2.68064 0.67382,-4.65818 2.02148,-5.93262 1.34765,-1.28903 3.43505,-1.93356 6.26221,-1.9336 l 5.40527,0"
     id="path3150"
     style="font-size:45px;font-style:normal;font-variant:normal;font-weight:bold;font-stretch:semi-condensed;text-align:start;line-height:100%;writing-mode:lr-tb;text-anchor:start;fill:#000000;fill-opacity:1;stroke:none;font-family:DejaVu Sans;-inkscape-font-specification:DejaVu Sans Bold Semi-Condensed" />
  <path
     d="m 430.189,329.61707 0,-13.1836 7.11914,0 0,34.18945 -7.11914,0 0,-3.55957 c -0.98147,1.4502 -2.05813,2.51221 -3.22999,3.18604 -1.17188,0.67383 -2.53419,1.01074 -4.08691,1.01074 -2.72462,0 -4.96583,-1.20117 -6.72363,-3.60351 -1.74317,-2.41699 -2.61475,-5.52246 -2.61475,-9.31641 0,-3.79393 0.87158,-6.89207 2.61475,-9.29443 1.7578,-2.41697 3.99901,-3.62547 6.72363,-3.62549 1.53807,2e-5 2.89305,0.34426 4.06494,1.03271 1.18651,0.67385 2.27049,1.72854 3.25196,3.16407 m -4.68018,15.93017 c 1.52342,1e-5 2.68065,-0.61523 3.47168,-1.8457 0.80565,-1.23046 1.20848,-3.01757 1.2085,-5.36133 -2e-5,-2.34374 -0.40285,-4.13084 -1.2085,-5.36133 -0.79103,-1.23045 -1.94826,-1.84568 -3.47168,-1.8457 -1.49415,2e-5 -2.64405,0.61525 -3.44971,1.8457 -0.79102,1.23049 -1.18653,3.01759 -1.18652,5.36133 -10e-6,2.34376 0.3955,4.13087 1.18652,5.36133 0.80566,1.23047 1.95556,1.84571 3.44971,1.8457"
     id="path3143"
     style="font-size:45px;font-style:normal;font-variant:normal;font-weight:bold;font-stretch:semi-condensed;text-align:start;line-height:100%;writing-mode:lr-tb;text-anchor:start;fill:#000000;fill-opacity:1;stroke:none;font-family:DejaVu Sans;-inkscape-font-specification:DejaVu Sans Bold Semi-Condensed" />
  <path
     d="m 443.87796,341.04285 0,-15.0293 7.11914,0 0,2.46094 c -10e-6,1.33303 -0.007,3.01027 -0.022,5.03174 -0.0147,2.00685 -0.022,3.34718 -0.022,4.02099 -1e-5,1.97755 0.0439,3.40577 0.13183,4.28467 0.10253,0.86427 0.26366,1.49415 0.4834,1.88965 0.29296,0.5127 0.67382,0.90821 1.14258,1.18652 0.46874,0.27833 1.0034,0.41749 1.604,0.41748 1.47948,10e-6 2.6367,-0.62987 3.47168,-1.88965 0.84959,-1.25975 1.2744,-3.01024 1.27442,-5.25146 l 0,-12.15088 7.07519,0 0,24.60937 -7.07519,0 0,-3.55957 c -1.06936,1.43555 -2.20461,2.49756 -3.40577,3.18604 -1.18653,0.67383 -2.49757,1.01074 -3.9331,1.01074 -2.54884,0 -4.49708,-0.87158 -5.84473,-2.61474 -1.33301,-1.74316 -1.99951,-4.27734 -1.99951,-7.60254"
     id="path3145"
     style="font-size:45px;font-style:normal;font-variant:normal;font-weight:bold;font-stretch:semi-condensed;text-align:start;line-height:100%;writing-mode:lr-tb;text-anchor:start;fill:#000000;fill-opacity:1;stroke:none;font-family:DejaVu Sans;-inkscape-font-specification:DejaVu Sans Bold Semi-Condensed" />
</svg>
