<?xml version="1.0" encoding="UTF-8" standalone="no"?>
<!-- Created with Inkscape (http://www.inkscape.org/) -->

<svg
   xmlns:dc="http://purl.org/dc/elements/1.1/"
   xmlns:cc="http://creativecommons.org/ns#"
   xmlns:rdf="http://www.w3.org/1999/02/22-rdf-syntax-ns#"
   xmlns:svg="http://www.w3.org/2000/svg"
   xmlns="http://www.w3.org/2000/svg"
   version="1.0"
   width="484.23383"
   height="600.0025"
   id="svg2">
  <defs
     id="defs4" />
  <metadata
     id="metadata7">
    <rdf:RDF>
      <cc:Work
         rdf:about="">
        <dc:format>image/svg+xml</dc:format>
        <dc:type
           rdf:resource="http://purl.org/dc/dcmitype/StillImage" />
        <dc:title></dc:title>
        <dc:creator>
          <cc:Agent>
            <dc:title>Tyler Tidman VA3DGN</dc:title>
          </cc:Agent>
        </dc:creator>
      </cc:Work>
    </rdf:RDF>
  </metadata>
  <path
     d="m 137.55933,10.500005 -15.53124,35.3561 C 85.868441,128.22173 49.681893,209.32343 13.468426,291.81159 l -2.968429,6.83798 2.968429,6.83799 c 36.159679,82.38323 72.346227,166.15309 108.559664,248.65887 l 15.53124,35.3561 15.53124,-35.3561 c 26.68469,-60.76659 53.36174,-121.53217 80.04154,-182.2933 14.91237,0.0424 29.82496,0.0639 44.73846,0.10602 l 4.82369,0 c 4.0744,2.09564 8.71053,3.37799 13.99402,3.4455 l 0,0.10601 c 0.21424,0.0102 0.42213,-0.0595 0.63609,-0.0529 0.18396,-0.001 0.3447,0.0572 0.53008,0.0529 l 0,-0.0529 c 5.73539,0.0982 11.32944,-1.06526 16.48538,-3.39249 l 2.38534,0 18.0226,0.15894 18.60569,0.15894 -0.0529,-0.47707 39.80875,0 17.3335,0 -0.0529,-2.12031 c 8.4179,4.83437 19.30477,8.17208 31.38052,4.77069 l 1.21918,-0.37105 1.16617,-0.53008 c 9.36396,-4.24552 16.79107,-11.38667 21.57411,-20.40795 l 0.0529,0 c 0.15928,-0.2574 0.22145,-0.48741 0.37105,-0.7421 0.14096,-0.2781 0.34122,-0.51352 0.47707,-0.79512 l -0.0529,0 c 3.7603,-6.77719 4.34617,-12.51301 4.98272,-15.21319 l -0.10602,0 c 2.01031,-7.23126 1.45297,-12.53028 1.53723,-14.63011 l 0.6891,-17.65155 -14.84215,0 14.89515,-1.90827 -0.10601,-15.00117 c -0.0799,-11.37474 -0.1318,-22.81154 -0.21203,-34.24294 -0.005,0.15317 0.57801,-0.30556 -0.31805,-5.03572 -0.44803,-2.36508 -1.60081,-6.41987 -5.40678,-9.96544 -2.78306,-2.59264 -6.32786,-3.70774 -9.48837,-4.24061 l 0,-0.0529 c -0.15028,-0.0329 -0.32454,0.0287 -0.47707,0 -0.97934,-0.14011 -2.11642,-0.50127 -2.91542,-0.47707 -0.4544,0.0136 -1.52117,0.28007 -2.27933,0.37106 -2.8811,0.22192 -5.71911,0.78324 -7.89814,1.90827 -0.35638,0.18401 -0.5221,0.39316 -0.84812,0.58309 -2.29232,-0.72316 -4.71135,-1.36197 -7.58009,-1.27219 -5.21046,-0.73956 -11.16226,-1.06673 -17.70455,0.95414 l -0.58309,0.21203 -0.58308,0.21203 c -3.45113,1.33768 -9.51987,3.25326 -15.47824,8.9583 -8.44024,6.39642 -11.89674,14.39989 -14.15304,18.55267 -0.7655,1.38683 -1.57608,3.16307 -2.38534,4.8237 l -4.61167,-19.98389 -3.02143,-13.03988 -13.35793,-0.10601 -19.87787,-0.15894 -13.51695,-0.10602 -3.12745,13.1459 -3.28647,13.78199 c -4.38357,-14.42122 -16.71166,-24.71076 -31.59256,-26.50382 l -1.00715,-0.10602 -1.06015,0 c -18.11279,0.0721 -36.2231,0.13892 -54.33284,0.21203 C 208.72122,172.43256 180.89093,109.14947 153.09074,45.85619 L 137.5595,10.500089 z m -0.26504,127.324365 c 23.43852,53.27674 44.89529,108.13986 68.69791,162.41543 -21.67811,54.06475 -45.25123,106.55945 -69.22799,159.76505 C 113.43844,407.02373 90.774574,353.13879 67.271187,299.81574 89.361874,245.25902 113.21414,191.82551 137.29429,137.82437 z m 116.4578,131.77701 c -0.0136,4.33893 -0.0567,8.07362 -0.0529,12.35078 0.003,4.23127 0.002,8.07457 0.0529,11.02559 0.0192,1.11149 0.0709,2.01043 0.10601,2.91543 l 0,5.67181 c -0.0265,12.13872 -0.0265,24.27751 -0.0529,36.41626 -8.88759,-0.0254 -17.77485,-0.0809 -26.66284,-0.10602 4.34718,-10.50069 8.75492,-20.9397 12.98687,-31.59256 l 2.65038,-6.62595 -2.86241,-6.51994 c -3.42872,-7.73844 -6.67472,-15.6236 -10.01845,-23.42938 7.95186,-0.0319 15.90218,-0.0736 23.85344,-0.10602 z m 43.46627,13.78199 -0.63609,1.53722 -0.90113,-0.53007 c 0.0102,-0.28872 0.0431,-0.55483 0.0529,-0.84813 0.5115,-0.0254 0.99336,-0.24985 1.48421,-0.15893 z m -1.59023,2.59738 0.42406,0.21203 -0.47707,1.06015 c 0.0195,-0.40411 0.0349,-0.8543 0.0529,-1.27218 z m 145.82404,13.14589 c 3.45163,3.23823 7.03434,4.62006 10.28348,5.08874 -2.10645,0.25255 -4.34359,0.80486 -6.73197,2.1203 -1.40308,0.77278 -2.56623,1.7068 -3.60452,2.70339 0.0533,-3.2507 0.008,-6.53359 0.0529,-9.91243 z"
     id="path3286"
     style="fill:#a1a1a1;fill-opacity:1;fill-rule:evenodd;stroke:#000000;stroke-width:21;stroke-linecap:butt;stroke-linejoin:round;stroke-miterlimit:4;stroke-opacity:1;stroke-dasharray:none" />
  <path
     d="m 137.55933,10.500005 -15.53124,35.3561 C 85.868441,128.22173 49.681893,209.32343 13.468426,291.81159 l -2.968429,6.83798 2.968429,6.83799 c 36.159679,82.38323 72.346227,166.15309 108.559664,248.65887 l 15.53124,35.3561 15.53124,-35.3561 c 26.68469,-60.76659 53.36174,-121.53217 80.04154,-182.2933 14.91237,0.0424 29.82496,0.0639 44.73846,0.10602 l 4.82369,0 c 4.0744,2.09564 8.71053,3.37799 13.99402,3.4455 l 0,0.10601 c 0.21424,0.0102 0.42213,-0.0595 0.63609,-0.0529 0.18396,-0.001 0.3447,0.0572 0.53008,0.0529 l 0,-0.0529 c 5.73539,0.0982 11.32944,-1.06526 16.48538,-3.39249 l 2.38534,0 18.0226,0.15894 18.60569,0.15894 -0.0529,-0.47707 39.80875,0 17.3335,0 -0.0529,-2.12031 c 8.4179,4.83437 19.30477,8.17208 31.38052,4.77069 l 1.21918,-0.37105 1.16617,-0.53008 c 9.36396,-4.24552 16.79107,-11.38667 21.57411,-20.40795 l 0.0529,0 c 0.15928,-0.2574 0.22145,-0.48741 0.37105,-0.7421 0.14096,-0.2781 0.34122,-0.51352 0.47707,-0.79512 l -0.0529,0 c 3.7603,-6.77719 4.34617,-12.51301 4.98272,-15.21319 l -0.10602,0 c 2.01031,-7.23126 1.45297,-12.53028 1.53723,-14.63011 l 0.6891,-17.65155 -14.84215,0 14.89515,-1.90827 -0.10601,-15.00117 c -0.0799,-11.37474 -0.1318,-22.81154 -0.21203,-34.24294 -0.005,0.15317 0.57801,-0.30556 -0.31805,-5.03572 -0.44803,-2.36508 -1.60081,-6.41987 -5.40678,-9.96544 -2.78306,-2.59264 -6.32786,-3.70774 -9.48837,-4.24061 l 0,-0.0529 c -0.15028,-0.0329 -0.32454,0.0287 -0.47707,0 -0.97934,-0.14011 -2.11642,-0.50127 -2.91542,-0.47707 -0.4544,0.0136 -1.52117,0.28007 -2.27933,0.37106 -2.8811,0.22192 -5.71911,0.78324 -7.89814,1.90827 -0.35638,0.18401 -0.5221,0.39316 -0.84812,0.58309 -2.29232,-0.72316 -4.71135,-1.36197 -7.58009,-1.27219 -5.21046,-0.73956 -11.16226,-1.06673 -17.70455,0.95414 l -0.58309,0.21203 -0.58308,0.21203 c -3.45113,1.33768 -9.51987,3.25326 -15.47824,8.9583 -8.44024,6.39642 -11.89674,14.39989 -14.15304,18.55267 -0.7655,1.38683 -1.57608,3.16307 -2.38534,4.8237 l -4.61167,-19.98389 -3.02143,-13.03988 -13.35793,-0.10601 -19.87787,-0.15894 -13.51695,-0.10602 -3.12745,13.1459 -3.28647,13.78199 c -4.38357,-14.42122 -16.71166,-24.71076 -31.59256,-26.50382 l -1.00715,-0.10602 -1.06015,0 c -18.11279,0.0721 -36.2231,0.13892 -54.33284,0.21203 C 208.72122,172.43256 180.89093,109.14947 153.09074,45.85619 L 137.5595,10.500089 z m -0.26504,127.324365 c 23.43852,53.27674 44.89529,108.13986 68.69791,162.41543 -21.67811,54.06475 -45.25123,106.55945 -69.22799,159.76505 C 113.43844,407.02373 90.774574,353.13879 67.271187,299.81574 89.361874,245.25902 113.21414,191.82551 137.29429,137.82437 z m 116.4578,131.77701 c -0.0136,4.33893 -0.0567,8.07362 -0.0529,12.35078 0.003,4.23127 0.002,8.07457 0.0529,11.02559 0.0192,1.11149 0.0709,2.01043 0.10601,2.91543 l 0,5.67181 c -0.0265,12.13872 -0.0265,24.27751 -0.0529,36.41626 -8.88759,-0.0254 -17.77485,-0.0809 -26.66284,-0.10602 4.34718,-10.50069 8.75492,-20.9397 12.98687,-31.59256 l 2.65038,-6.62595 -2.86241,-6.51994 c -3.42872,-7.73844 -6.67472,-15.6236 -10.01845,-23.42938 7.95186,-0.0319 15.90218,-0.0736 23.85344,-0.10602 z m 43.46627,13.78199 -0.63609,1.53722 -0.90113,-0.53007 c 0.0102,-0.28872 0.0431,-0.55483 0.0529,-0.84813 0.5115,-0.0254 0.99336,-0.24985 1.48421,-0.15893 z m -1.59023,2.59738 0.42406,0.21203 -0.47707,1.06015 c 0.0195,-0.40411 0.0349,-0.8543 0.0529,-1.27218 z m 145.82404,13.14589 c 3.45163,3.23823 7.03434,4.62006 10.28348,5.08874 -2.10645,0.25255 -4.34359,0.80486 -6.73197,2.1203 -1.40308,0.77278 -2.56623,1.7068 -3.60452,2.70339 0.0533,-3.2507 0.008,-6.53359 0.0529,-9.91243 z"
     id="path3416"
     style="fill:#ffffff;fill-opacity:1;fill-rule:evenodd;stroke:#ffffff;stroke-width:19.99999237;stroke-linecap:butt;stroke-linejoin:round;stroke-miterlimit:4;stroke-opacity:1;stroke-dasharray:none" />
  <g
     id="g3133">
    <path
       d="m 344.27371,252.26934 -23.30633,97.9771 -4.27467,0 0.17605,4.85774 18.0226,0.15893 -0.42406,-5.14174 -5.95389,-0.12501 4.80475,-25.98883 17.47549,-0.12501 5.83085,26.50382 -5.83085,0 0.26504,4.55866 42.03507,0 -0.10602,-4.66467 -6.2549,0 -22.58126,-97.85212 -19.87787,-0.15894 z m -2.68442,35.81071 7.77122,28.80561 -14.46528,0.14198 6.69406,-28.94761 z"
       id="path3264"
       style="fill:#000000;fill-opacity:1;fill-rule:evenodd;stroke:none" />
    <path
       d="m 456.01719,321.16069 c -0.15402,3.84067 0.22967,7.74572 -0.95904,11.46256 -0.94386,4.00377 -1.46564,8.16338 -3.67768,11.73879 -2.91895,6.05048 -8.11169,11.07411 -14.2188,13.84301 -6.71681,1.89192 -13.89715,-0.16115 -19.67334,-3.76556 -6.01739,-3.72416 -12.02881,-8.48601 -14.94581,-15.11699 -2.92652,-7.84686 -5.66093,-15.88538 -6.25755,-24.29745 -1.3632,-10.07447 -1.7958,-20.57518 1.30441,-30.3839 0.72964,-4.6088 2.80354,-8.71328 5.02791,-12.74315 2.8788,-5.29853 5.57917,-11.16942 10.93891,-14.42388 2.79599,-2.67712 6.39995,-4.05545 9.92573,-5.42207 4.23554,-1.30833 8.47868,-1.07472 12.78,-0.23237 4.78285,-1.20425 7.58186,6.49548 11.71226,4.08183 1.84849,-2.06555 3.31419,-6.24917 6.62993,-5.52345 2.22344,-0.62661 1.88962,1.22786 1.83401,2.81239 0.0801,11.40308 0.1603,22.80613 0.24033,34.20919 -3.74097,0.47859 -4.76274,-0.731 -4.49519,-4.2944 -0.53326,-4.258 -2.40726,-8.30543 -4.37643,-12.10264 -1.54346,-4.41144 -4.9188,-7.58676 -8.44112,-10.4107 -3.18891,-2.77611 -8.04292,-0.0799 -10.18612,2.91761 -4.49919,5.29077 -4.99222,12.62813 -4.72971,19.27554 0.50675,13.62327 -0.40481,27.24836 -0.0711,40.87435 -0.0489,7.52769 0.0302,15.52465 4.32352,22.05377 1.35535,4.14366 6.11758,5.25098 9.88309,3.94353 3.75916,-1.9175 7.49392,-4.56675 9.11499,-8.63071 2.19185,-4.43604 3.28691,-9.39626 4.20999,-14.24306 0.71567,-2.83684 -0.65804,-6.75336 3.40925,-5.62224 0.23254,0 0.46506,0 0.69758,0 z"
       id="path3266"
       style="fill:#000000;fill-opacity:1;fill-rule:evenodd;stroke:none" />
    <path
       d="m 290.89501,252.48137 c -22.17487,0.0884 -44.34972,0.1767 -66.52459,0.26504 6.90867,15.83161 13.81732,31.66324 20.72599,47.49485 -7.86281,18.1993 -15.7256,36.39858 -23.58841,54.59788 18.80004,0.0529 37.6001,0.10601 56.40014,0.15894 -0.40817,-1.3921 0.59255,-4.20941 -0.72901,-4.67753 -2.16002,-0.0487 -4.32001,-0.0975 -6.48003,-0.14622 0.0353,-16.18501 0.0707,-32.37 0.10602,-48.55501 5.0803,1.35439 7.0406,6.29502 7.25595,11.28829 1.26403,10.43934 -0.4912,21.23851 2.38774,31.4517 2.41306,7.36354 8.73685,14.35816 17.01411,14.17569 6.14212,0.28144 12.50516,-2.1658 16.64944,-6.71743 1.85312,-1.98527 3.77374,-7.9051 1.73918,-8.55267 -2.21813,3.91188 -9.09094,4.80015 -7.47114,-1.17526 -0.2481,-8.01247 0.24744,-16.10829 -0.7989,-24.06305 -1.79641,-7.51324 -7.31713,-13.54813 -13.45302,-17.94449 5.80803,1.07476 9.97879,-4.18199 12.76,-8.49018 3.70565,-7.39654 3.63434,-16.33263 1.57344,-24.19481 -2.26719,-7.94339 -9.37019,-13.92822 -17.56691,-14.91587 z m -20.19399,5.03958 c 3.20617,0.67068 5.87699,0.70418 7.30608,3.39047 1.72011,3.7381 0.71517,32.59953 -0.0755,33.4713 l -2.48711,2.74215 -4.47506,0.0441 c -0.47724,0.005 -0.27361,-27.37871 -0.26842,-39.64809 z"
       id="path3268"
       style="fill:#000000;fill-opacity:1;fill-rule:evenodd;stroke:none" />
  </g>
  <g
     id="g3138">
    <path
       d="M 137.24128,93.522413 226.35336,300.02155 135.95193,504.50157 47.499335,297.34304 137.24128,93.522413 z"
       id="path3576"
       style="fill:#e5001a;fill-opacity:1;fill-rule:evenodd;stroke:none" />
    <path
       d="m 110.54476,155.63499 c -0.1496,0.19127 -2.65058,6.04425 -2.75639,6.14889 0.52851,0.72896 25.65336,34.73465 26.45081,35.46212 -0.0707,27.86434 -0.35338,56.09976 -0.42406,83.96411 -15.0895,-4.647 -30.17902,-9.29401 -45.268529,-13.94101 4.59399,10.31881 9.187998,20.63765 13.781989,30.95646 -16.167333,2.98611 -32.334666,5.97219 -48.501998,8.9583 14.312065,7.22671 28.624129,14.45341 42.936194,21.68012 -3.109776,8.69326 -6.219569,17.38651 -9.329346,26.07976 15.40755,0.10602 30.81512,0.21204 46.22267,0.31805 -0.0529,17.5102 -0.10602,52.45735 -0.15894,52.53058 -0.15673,-0.0176 -31.62892,0.32052 -31.96361,-0.0529 -0.0653,0.37726 3.55755,7.03093 3.65753,7.6861 0.50563,0.0909 63.21508,0.10789 63.66218,0.26504 0.0399,-0.13926 3.13261,-7.27117 3.39249,-7.68611 -1.00906,-0.23253 -32.80296,-0.32016 -32.81173,-0.15893 -0.12485,-0.44674 0.10601,-35.05573 0.15893,-52.58359 4.98272,0.0353 9.96544,0.0707 14.94816,0.10602 -4.57633,7.80979 -9.15265,15.61958 -13.72898,23.42938 16.8211,0.12365 33.64218,0.24736 50.46328,0.37105 12.12108,-26.04443 33.35128,-78.74056 34.05018,-80.09466 -0.87136,-1.77188 -42.14006,-97.85696 -42.7528,-99.28006 -2.66805,14.27673 -5.22072,27.86119 -7.88877,42.13792 -11.43198,-4.48797 -22.86397,-8.97597 -34.29595,-13.46394 6.09588,20.1429 12.19176,40.28581 18.28764,60.42872 -6.30791,-1.94361 -12.61582,-3.88724 -18.92373,-5.83084 0.0707,-28.73015 0.14129,-57.46029 0.21203,-86.19044 8.57406,-11.30062 17.18766,-22.57127 25.76171,-33.87188 l 0.42407,-0.6361 c -0.96118,-2.12568 -1.95425,-4.23523 -2.91542,-6.36091 -17.49253,-0.12366 -35.19708,-0.24737 -52.68961,-0.37106 z m 3.81655,5.93686 c 6.57295,0.0529 13.1459,0.10601 19.71885,0.15894 -0.0176,8.65792 -0.0353,17.31582 -0.0529,25.97374 -6.55528,-8.71092 -13.11057,-17.42184 -19.66584,-26.13277 z m 25.65571,0.21203 c 6.27257,0.0353 12.54513,0.0707 18.81771,0.10602 -6.29023,8.35753 -12.58049,17.40418 -18.87072,25.76171 0.0176,-8.39288 0.0353,-17.47485 0.0529,-25.86773 z m -31.43354,262.06981 c 0.96225,2.75653 2.79799,5.50935 3.97557,7.47407 0.59917,0.1586 32.94729,0.17502 49.40313,0.10602 1.30541,-3.1417 3.00646,-7.21971 2.86241,-7.36806 -17.44562,-0.10263 -38.1168,-0.17777 -56.24111,-0.21203 z m 27.56398,14.89514 c -10.46346,0.0153 -20.90552,0.0969 -21.15005,0.0529 0.33193,0.62693 3.09673,7.44963 3.65752,8.00415 0.71711,0.37031 35.39895,0.38997 36.20423,0.21203 -0.27786,-0.69083 3.37948,-7.22344 2.65038,-8.05716 -0.40193,-0.19441 -10.89863,-0.22679 -21.36208,-0.21203 z m 0.10601,15.26621 c -6.54236,0.031 -13.0412,0.0972 -13.62296,0.10601 0.33109,0.64127 3.00705,7.29226 3.4985,7.89814 0.58736,0.32049 18.47608,-0.0188 20.24892,0.15894 0.79266,-1.52854 3.14884,-6.58163 3.76355,-8.11017 -0.7597,-0.0802 -7.34564,-0.0841 -13.88801,-0.0529 z m -0.42406,16.37936 c -2.77544,0.0215 -5.5514,0.0529 -6.09588,0.0529 0.38378,0.704 5.41498,11.42179 6.46694,11.66168 0.68355,-0.15707 5.97485,-10.31225 5.83084,-11.55566 -0.63649,-0.15775 -3.42645,-0.18057 -6.2019,-0.15894 z"
       id="path4326"
       style="fill:#ffffff;fill-opacity:1;fill-rule:evenodd;stroke:none" />
    <path
       d="M 137.55933,52.694092 C 101.37278,135.12098 65.186231,216.22891 28.999666,298.6558 65.186231,381.10031 101.37278,464.86381 137.55933,547.30834 173.76355,464.86381 209.96777,382.41928 246.172,299.97476 209.96777,217.54787 173.76355,135.12098 137.55933,52.694092 z m -0.31805,43.46627 c 31.34781,66.761718 57.21276,136.331548 87.13363,203.861188 -27.33042,68.79737 -57.36745,134.23638 -87.7635,201.84207 C 106.43307,435.43934 78.423352,366.79778 48.818301,299.98099 76.555413,230.90176 107.04,164.32285 137.24128,96.160362 z"
       id="path3270"
       style="fill:#000000;fill-opacity:1;fill-rule:evenodd;stroke:none" />
  </g>
</svg>
